<?xml version="1.0" encoding="UTF-8"?>
<!-- Generator: visioncortex VTracer -->
<svg id="svg" version="1.1" xmlns="http://www.w3.org/2000/svg" style="display: block;" viewBox="0 0 1181 896"><path d="M0 0 C3.04054067 2.73268653 6.00395086 5.54051821 8.9609375 8.36328125 C9.74339844 9.09289062 10.52585937 9.8225 11.33203125 10.57421875 C16.80342838 15.82129835 21.40216733 21.57040116 26.01171875 27.5625 C29.06114096 31.52069722 32.22657511 35.37805122 35.3984375 39.23828125 C40.24889269 45.1625614 44.8870994 51.2126886 49.44335938 57.36499023 C53.48972869 62.80147037 57.73211456 68.05459779 62.03295898 73.29077148 C65.96508887 78.09449519 69.77092195 82.98073611 73.5234375 87.92578125 C78.60112949 94.61685296 83.7938286 101.20164988 89.05859375 107.74609375 C93.29105684 113.00945078 97.45040592 118.33007475 101.61523438 123.64697266 C102.94201372 125.33914588 104.27129873 127.02931502 105.6015625 128.71875 C110.7432984 135.24999117 115.86082484 141.79947772 120.9609375 148.36328125 C129.0008908 158.70564411 137.04142995 169.03572112 145.3359375 179.17578125 C150.40626556 185.37761046 155.30881773 191.69008099 160.15136719 198.07080078 C164.69093199 204.04182159 169.35732478 209.90211211 174.05859375 215.74609375 C178.28646172 221.00373644 182.44161887 226.31836423 186.60205078 231.62939453 C188.88547053 234.54294952 191.17344553 237.45292318 193.4609375 240.36328125 C194.37762573 241.52993098 195.2942924 242.69659764 196.2109375 243.86328125 C196.6646875 244.44078125 197.1184375 245.01828125 197.5859375 245.61328125 C212.7109375 264.86328125 212.7109375 264.86328125 214.08544922 266.61279297 C215.00357104 267.78122277 215.92186576 268.94951673 216.84033203 270.11767578 C219.11116119 273.00628631 221.37908696 275.89707673 223.640625 278.79296875 C228.5382716 285.05715216 233.4935177 291.26716067 238.5234375 297.42578125 C243.26746607 303.23560299 247.8852568 309.12223476 252.43359375 315.0859375 C255.22108262 318.72260981 258.08934176 322.29289415 260.9609375 325.86328125 C265.11841652 331.03503724 269.21142628 336.2485358 273.2421875 341.51953125 C276.28306754 345.49307737 279.36316892 349.43395507 282.4609375 353.36328125 C285.97290872 357.81799763 289.45252429 362.29479941 292.8984375 366.80078125 C297.00005708 372.15814882 301.19532227 377.43565207 305.4206543 382.69580078 C309.34861268 387.58793453 313.23336461 392.51238557 317.10180664 397.45166016 C319.65712327 400.71193947 322.23358592 403.95278515 324.8359375 407.17578125 C328.35388577 411.55351321 331.75159591 416.01662261 335.1484375 420.48828125 C340.00613668 426.87854436 344.99488448 433.14000493 350.08691406 439.34448242 C354.52886436 444.77834394 358.78469466 450.33910309 363.01342773 455.93969727 C366.31611407 460.28794521 369.72653556 464.51521627 373.24560547 468.68994141 C405.68680721 507.20774287 427.95577617 557.62375667 423.61328125 608.80078125 C421.10596917 634.85611919 414.30669547 659.67250708 400.9609375 682.36328125 C400.4352417 683.26433594 400.4352417 683.26433594 399.89892578 684.18359375 C394.08059636 694.08042177 387.60238717 702.81100863 379.9609375 711.36328125 C378.7731201 712.75884449 377.58557553 714.15464005 376.3984375 715.55078125 C353.45560687 741.41557616 322.17878341 760.30783126 288.6484375 768.61328125 C287.66536621 768.85981445 286.68229492 769.10634766 285.66943359 769.36035156 C267.17326347 773.70003386 248.67338441 773.69373423 229.7734375 773.61328125 C228.4834787 773.61017944 227.1935199 773.60707764 225.86447144 773.60388184 C206.82417372 773.55013197 187.9182193 773.27933895 168.9609375 771.36328125 C167.94688843 771.26146545 167.94688843 771.26146545 166.91235352 771.15759277 C156.57485112 770.11280146 146.25872974 768.91765821 135.95074463 767.61462402 C134.0955627 767.38028645 132.23993597 767.14947765 130.38427734 766.91894531 C59.31504759 757.94592403 -11.25046465 739.23033167 -79.39501953 717.51708984 C-83.34265807 716.26715418 -87.29741712 715.04185165 -91.25390625 713.8203125 C-109.04543364 708.3146695 -126.70035336 702.47781193 -144.30377197 696.39837646 C-145.47404938 695.99428558 -145.47404938 695.99428558 -146.66796875 695.58203125 C-147.4447699 695.31376526 -148.22157104 695.04549927 -149.02191162 694.769104 C-154.44223414 692.90168563 -159.87450633 691.07305112 -165.31640625 689.26953125 C-166.06281372 689.02207153 -166.80922119 688.77461182 -167.57824707 688.51965332 C-171.08266535 687.35920788 -174.5885492 686.20339525 -178.09619141 685.05273438 C-185.11970012 682.73297702 -192.03885419 680.24877598 -198.92749023 677.55566406 C-203.91721362 675.64355665 -208.97814587 673.95074489 -214.0390625 672.23828125 C-223.78247845 668.90894803 -233.42726426 665.36330375 -243.0390625 661.67578125 C-286.00852642 645.2387426 -286.00852642 645.2387426 -330.2890625 652.55078125 C-344.27590448 658.92847165 -357.6085378 668.76414606 -368.3828125 679.75390625 C-370.0390625 681.36328125 -370.0390625 681.36328125 -372.0390625 681.36328125 C-372.0390625 682.02328125 -372.0390625 682.68328125 -372.0390625 683.36328125 C-373.4375 684.7734375 -373.4375 684.7734375 -375.4140625 686.42578125 C-376.52394531 687.37130859 -376.52394531 687.37130859 -377.65625 688.3359375 C-378.44257813 689.00496094 -379.22890625 689.67398438 -380.0390625 690.36328125 C-384.81663869 694.57128875 -389.5140078 698.85301659 -394.12890625 703.23828125 C-395.20398438 704.25728516 -395.20398438 704.25728516 -396.30078125 705.296875 C-397.73583818 706.65979262 -399.16692946 708.02689968 -400.59375 709.3984375 C-401.25503906 710.02621094 -401.91632813 710.65398438 -402.59765625 711.30078125 C-403.18861084 711.86667969 -403.77956543 712.43257812 -404.38842773 713.015625 C-406.0390625 714.36328125 -406.0390625 714.36328125 -409.0390625 715.36328125 C-409.0390625 716.02328125 -409.0390625 716.68328125 -409.0390625 717.36328125 C-410.3671875 718.703125 -410.3671875 718.703125 -412.2890625 720.30078125 C-415.34410923 722.88871187 -418.31485214 725.53596226 -421.23242188 728.27832031 C-440.2142796 746.03194019 -460.18661999 758.14315837 -486.88427734 757.76391602 C-501.38757497 757.2570728 -514.35896702 751.9557382 -526.0390625 743.36328125 C-526.0390625 742.70328125 -526.0390625 742.04328125 -526.0390625 741.36328125 C-526.6165625 741.11578125 -527.1940625 740.86828125 -527.7890625 740.61328125 C-530.36846229 739.18028137 -532.10027842 737.57903449 -534.0390625 735.36328125 C-534.0390625 734.70328125 -534.0390625 734.04328125 -534.0390625 733.36328125 C-534.6990625 733.36328125 -535.3590625 733.36328125 -536.0390625 733.36328125 C-537.56400425 731.49980243 -538.93531585 729.65942535 -540.2890625 727.67578125 C-540.89077271 726.79490845 -540.89077271 726.79490845 -541.50463867 725.89624023 C-549.89293245 713.29446396 -555.48522848 698.58167684 -556.0390625 683.36328125 C-556.07902344 682.46609375 -556.11898437 681.56890625 -556.16015625 680.64453125 C-556.99507778 644.10443624 -537.86169885 610.89533508 -521.2265625 579.55078125 C-520.87038849 578.8791394 -520.51421448 578.20749756 -520.14724731 577.51550293 C-516.0906812 569.88272734 -511.90549375 562.35575027 -507.51538086 554.90795898 C-505.7825539 551.92114645 -504.22999323 548.90895206 -502.7265625 545.80078125 C-497.0983674 534.38034051 -491.2481581 523.06172689 -484.8515625 512.05078125 C-481.56691624 506.38509624 -478.63605606 500.59924098 -475.75 494.72265625 C-474.14150381 491.56442172 -472.41852241 488.53025034 -470.6015625 485.48828125 C-467.85197698 480.87488272 -465.40235645 476.18063416 -463.0390625 471.36328125 C-460.17681415 465.52885662 -457.07919175 459.9225948 -453.74609375 454.33984375 C-451.91858116 451.15319709 -450.2829409 447.910583 -448.6640625 444.61328125 C-446.20786187 439.61918818 -443.6145748 434.75584532 -440.8515625 429.92578125 C-437.07827579 423.32293912 -433.53299053 416.61776741 -430.0390625 409.86328125 C-425.89746969 401.86231326 -421.64545444 393.94879412 -417.171875 386.12890625 C-411.93872065 376.94158904 -407.05895387 367.57834121 -402.2265625 358.17578125 C-397.03908111 348.11291979 -391.66069925 338.18943382 -386.0390625 328.36328125 C-379.65359961 316.8854117 -373.42199346 305.29411092 -367.6640625 293.48828125 C-364.87307079 287.84154164 -361.7923707 282.41791089 -358.6015625 276.98828125 C-355.28580533 271.34117589 -352.09642359 265.68779506 -349.2265625 259.80078125 C-345.65421915 252.47509582 -341.83909326 245.28988673 -337.9765625 238.11328125 C-337.39865967 237.03618896 -336.82075684 235.95909668 -336.2253418 234.84936523 C-333.34911011 229.52072894 -330.40724452 224.24624419 -327.3359375 219.02734375 C-324.81946639 214.74601559 -322.50729986 210.46055688 -320.3515625 205.98828125 C-313.84692101 192.72005815 -306.59386865 179.82907431 -299.2890625 166.98828125 C-296.00277468 161.2096786 -292.98611582 155.33408557 -290.05981445 149.36621094 C-287.34363125 143.86790795 -284.36722544 138.54533914 -281.32421875 133.22265625 C-278.92208488 128.99821393 -276.68164855 124.72762511 -274.5390625 120.36328125 C-272.12497488 115.4522426 -269.56580797 110.67361371 -266.8515625 105.92578125 C-263.12629487 99.4029391 -259.61660327 92.78420779 -256.1640625 86.11328125 C-250.98940954 76.12019245 -245.62843222 66.24413526 -240.16552734 56.40625 C-238.74132198 53.82329585 -237.36035239 51.21806222 -235.9765625 48.61328125 C-229.3129552 36.50108336 -222.29393309 25.68933602 -212.51953125 15.85839844 C-211.08903146 14.41374462 -209.68839451 12.93970789 -208.2890625 11.46484375 C-187.12092031 -10.5032573 -159.38747799 -24.10211408 -129.8515625 -30.88671875 C-129.1517627 -31.05002686 -128.45196289 -31.21333496 -127.73095703 -31.3815918 C-84.1791064 -40.84084008 -33.62479623 -29.60049522 0 0 Z " transform="translate(681.0390625,94.63671875)" style="fill: #000000;"/><path d="M0 0 C29.37 0 58.74 0 89 0 C89 43.89 89 87.78 89 133 C59.63 133 30.26 133 0 133 C0 89.11 0 45.22 0 0 Z " transform="translate(681,390)" style="fill: #FDFDFC;"/><path d="M0 0 C29.04 0 58.08 0 88 0 C88 43.89 88 87.78 88 133 C58.96 133 29.92 133 0 133 C0 89.11 0 45.22 0 0 Z " transform="translate(444,390)" style="fill: #FEFEFE;"/><path d="" transform="translate(0,0)" style="fill: #000000;"/><path d="" transform="translate(0,0)" style="fill: #000000;"/><path d="" transform="translate(0,0)" style="fill: #000000;"/></svg>