<?xml version="1.0" encoding="UTF-8"?>
<!-- Generator: visioncortex VTracer -->
<svg id="svg" version="1.1" xmlns="http://www.w3.org/2000/svg" style="display: block;" viewBox="0 0 1147 912"><path d="M0 0 C41.09840166 -1.1165035 76.22309839 13.29222985 106.05957031 41.1809082 C111.20619625 46.1092492 115.63793664 51.43983316 120.01074219 57.06201172 C121.00075837 58.27968772 121.99449844 59.49434204 122.99121094 60.70654297 C129.23724305 68.30378457 135.3197342 76.0050314 141.26879883 83.83691406 C144.70532728 88.3610437 148.17833368 92.85246132 151.69824219 97.31201172 C155.99188971 102.75268752 160.22905575 108.23321579 164.44042969 113.73779297 C166.29587273 116.15132418 168.18088657 118.53901052 170.08105469 120.91748047 C170.59023438 121.55685547 171.09941406 122.19623047 171.62402344 122.85498047 C172.61471482 124.0965446 173.60937378 125.33495554 174.60839844 126.56982422 C178.01074219 130.84001217 178.01074219 130.84001217 178.01074219 133.06201172 C178.67074219 133.06201172 179.33074219 133.06201172 180.01074219 133.06201172 C181.57321138 134.94764816 183.02051796 136.8284207 184.44824219 138.81201172 C184.84333984 139.35083984 185.2384375 139.88966797 185.64550781 140.44482422 C186.77133899 141.98090004 187.89117732 143.52136274 189.01074219 145.06201172 C189.89439453 146.18349609 189.89439453 146.18349609 190.79589844 147.32763672 C192.01074219 149.06201172 192.01074219 149.06201172 192.01074219 151.06201172 C192.67074219 151.06201172 193.33074219 151.06201172 194.01074219 151.06201172 C195.38574219 152.57373047 195.38574219 152.57373047 197.01074219 154.74951172 C197.6359375 155.57580078 198.26113281 156.40208984 198.90527344 157.25341797 C199.94748047 158.64367187 199.94748047 158.64367187 201.01074219 160.06201172 C202.57006881 162.10610309 204.1327752 164.14761913 205.69824219 166.18701172 C206.11871826 166.73542725 206.53919434 167.28384277 206.97241211 167.84887695 C210.20205848 172.04747734 213.50105034 176.18643175 216.82324219 180.31201172 C221.67970641 186.34350262 226.39334865 192.47252315 231.07324219 198.64160156 C234.89335162 203.6554952 238.82443545 208.56480891 242.82324219 213.43701172 C247.05017599 218.58808268 251.07290395 223.81650554 254.94042969 229.24560547 C257.91470532 233.2917427 261.07621487 237.17872591 264.23095703 241.0847168 C268.13569063 245.93296204 271.93396174 250.85413861 275.69824219 255.81201172 C279.99154652 261.46455686 284.38370714 267.00567631 288.91308594 272.47216797 C291.12402495 275.20187479 293.22944971 277.99157212 295.32324219 280.81201172 C298.77091342 285.45495573 302.32179255 289.99505533 305.94824219 294.49951172 C310.97175475 300.74101382 315.88823102 307.05192326 320.74902344 313.42089844 C322.10641658 315.18645507 323.47901394 316.93941976 324.85449219 318.69091797 C325.55227783 319.58399658 325.55227783 319.58399658 326.26416016 320.49511719 C327.16048354 321.64160701 328.06040497 322.78529538 328.96435547 323.92578125 C332.01074219 327.83729756 332.01074219 327.83729756 332.01074219 330.06201172 C332.67074219 330.06201172 333.33074219 330.06201172 334.01074219 330.06201172 C335.49902344 331.90576172 335.49902344 331.90576172 337.32324219 334.56201172 C340.83205835 339.51638372 344.53262852 344.24619136 348.38574219 348.93701172 C354.90440314 356.89082797 361.16836109 365.01022542 367.39355469 373.19482422 C372.02003001 379.25690886 376.74387331 385.22241535 381.57324219 391.12451172 C386.11303394 396.67387639 390.49501996 402.29467562 394.76074219 408.05810547 C397.33579052 411.49597381 399.97672229 414.87645815 402.63574219 418.24951172 C403.09972412 418.83909668 403.56370605 419.42868164 404.04174805 420.03613281 C406.10699512 422.65767664 408.17937922 425.27273495 410.26464844 427.87841797 C410.90273438 428.68150391 411.54082031 429.48458984 412.19824219 430.31201172 C412.74867188 430.99779297 413.29910156 431.68357422 413.86621094 432.39013672 C415.01074219 434.06201172 415.01074219 434.06201172 415.01074219 436.06201172 C415.67074219 436.06201172 416.33074219 436.06201172 417.01074219 436.06201172 C418.53417969 437.94091797 418.53417969 437.94091797 420.38574219 440.62451172 C423.63920851 445.21557909 427.02709213 449.6317214 430.57324219 453.99951172 C460.7802667 491.49404151 486.4718201 532.42693266 486.32641602 582.11743164 C486.32326003 584.3618252 486.34680462 586.60488941 486.37207031 588.84912109 C486.43307194 602.56210024 484.08956879 615.39242981 480.26074219 628.56201172 C480.00542725 629.444375 479.7501123 630.32673828 479.48706055 631.23583984 C477.0100241 639.5130767 473.81820866 647.31512634 470.01074219 655.06201172 C469.47835937 656.15513672 468.94597656 657.24826172 468.39746094 658.37451172 C461.92772139 670.97429088 453.89762647 682.5369135 444.15136719 692.80419922 C442.45756767 694.59072499 440.90339388 696.37953522 439.38574219 698.31201172 C429.56251227 709.68627794 415.93525758 718.63378503 403.01074219 726.06201172 C402.42566895 726.39974609 401.8405957 726.73748047 401.23779297 727.08544922 C361.91660168 749.57281688 317.8094038 749.21698289 273.82324219 747.31201172 C272.82649475 747.26944244 271.82974731 747.22687317 270.80279541 747.18301392 C237.0222824 745.70384549 203.48822279 742.30769616 170.04650879 737.35900879 C166.94076251 736.90591287 163.83079436 736.48348406 160.72167969 736.05419922 C118.18812278 729.93251982 76.27111011 718.86718348 35.01074219 707.06201172 C34.27349915 706.85122986 33.5362561 706.640448 32.77667236 706.42327881 C24.18094346 703.95848065 15.62351362 701.37714201 7.08825684 698.71044922 C4.78614034 697.9919086 2.48293519 697.27691778 0.1796875 696.56201172 C-35.95417045 685.33199504 -35.95417045 685.33199504 -52.34008789 679.21630859 C-58.41890824 676.94894497 -64.54494076 674.8637932 -70.70410156 672.82763672 C-82.4593498 668.93730925 -94.13326395 664.82913298 -105.80175781 660.68701172 C-106.85242432 660.31516754 -107.90309082 659.94332336 -108.9855957 659.56021118 C-120.70315711 655.41308331 -132.388991 651.21551663 -143.98925781 646.74951172 C-164.56347892 638.85747781 -185.84227912 634.14666023 -206.95703125 642.87548828 C-216.57935898 647.27051202 -224.90392987 653.31049188 -232.98925781 660.06201172 C-233.59753418 660.56877441 -234.20581055 661.07553711 -234.83251953 661.59765625 C-242.53052708 668.0074978 -242.53052708 668.0074978 -249.77050781 674.91748047 C-251.98925781 677.06201172 -251.98925781 677.06201172 -253.98925781 677.06201172 C-253.98925781 677.72201172 -253.98925781 678.38201172 -253.98925781 679.06201172 C-255.44702148 680.51391602 -255.44702148 680.51391602 -257.46972656 682.19873047 C-261.8854319 685.95407081 -266.09811017 689.88488728 -270.30175781 693.87451172 C-271.80393251 695.29033211 -273.3065361 696.70569757 -274.80957031 698.12060547 C-276.74779709 699.94642725 -278.68546745 701.77256143 -280.61328125 703.609375 C-294.0183243 716.37847915 -310.24029471 728.24769622 -327.98925781 734.06201172 C-328.65441406 734.28630859 -329.31957031 734.51060547 -330.00488281 734.74169922 C-344.74837457 738.84961868 -362.18162405 736.31152269 -375.67675781 729.43701172 C-395.15374931 717.76836366 -409.55816058 701.6032426 -416.33300781 679.71044922 C-420.60913737 662.45321209 -419.55899933 641.9282468 -413.98925781 625.06201172 C-413.77978516 624.42489258 -413.5703125 623.78777344 -413.35449219 623.13134766 C-408.46407975 608.94338119 -400.77014574 595.70286855 -393.78271484 582.46386719 C-392.21602443 579.49214594 -390.65983516 576.51538363 -389.11035156 573.53466797 C-384.9405054 565.52961256 -380.64639134 557.61567404 -376.17578125 549.7746582 C-373.12751593 544.39540639 -370.39018989 538.9016113 -367.66503906 533.35107422 C-366.06829354 530.21713546 -364.35436098 527.2062703 -362.55175781 524.18701172 C-360.00343634 519.89687051 -357.68300798 515.54118424 -355.48925781 511.06201172 C-351.61834453 503.17928033 -347.50587079 495.42963115 -343.36425781 487.68701172 C-343.04465088 487.08727539 -342.72504395 486.48753906 -342.39575195 485.86962891 C-338.84970221 479.21976195 -335.20035072 472.6744829 -331.28027344 466.23828125 C-329.53060144 463.28885308 -328.03798261 460.27806279 -326.55175781 457.18701172 C-324.38442715 452.74618557 -322.08833676 448.4300165 -319.55175781 444.18701172 C-316.8268138 439.61299855 -314.39416288 434.96283322 -312.05175781 430.18701172 C-309.20885504 424.39117606 -306.16681607 418.77379902 -302.91259766 413.19995117 C-300.66853644 409.32837115 -298.63463695 405.39748718 -296.67675781 401.37451172 C-293.87262067 395.65740105 -290.78020016 390.17448493 -287.55175781 384.68701172 C-283.83669839 378.35837101 -280.3442532 371.99152604 -277.11621094 365.40234375 C-270.60566486 352.11598287 -263.73906801 338.99045834 -256.42529297 326.12841797 C-249.17203337 313.37257336 -242.10719287 300.51704438 -235.64746094 287.33984375 C-233.46854141 282.92581151 -231.04793321 278.74699433 -228.45800781 274.56591797 C-226.79519325 271.73117293 -225.36403343 268.83008585 -223.92675781 265.87451172 C-220.69503291 259.28870261 -217.12801378 252.93086372 -213.48925781 246.56201172 C-209.38465279 239.37088208 -205.46121865 232.17840426 -201.83691406 224.73388672 C-199.01835555 219.03587986 -195.88004519 213.50344698 -192.81542969 207.93554688 C-188.90529746 200.80523467 -185.14591379 193.60595807 -181.42675781 186.37451172 C-177.08866217 177.95053529 -172.54824378 169.69775408 -167.7355957 161.53662109 C-164.46844625 155.97192784 -161.55569203 150.32293754 -158.73144531 144.51904297 C-156.41672965 139.92594127 -153.87081442 135.48060142 -151.3203125 131.015625 C-148.93965594 126.8227214 -146.72503295 122.58720513 -144.61425781 118.24951172 C-141.4150674 111.72494474 -137.79585484 105.50007489 -134.11132812 99.23950195 C-131.15754145 94.18390448 -128.42153144 89.07832211 -125.86425781 83.81201172 C-120.10768951 72.02566213 -113.61848502 60.995657 -104.98925781 51.06201172 C-104.30347656 50.25505859 -103.61769531 49.44810547 -102.91113281 48.61669922 C-78.30922829 20.38645626 -45.03116418 4.05950366 -7.86425781 0.31201172 C-5.2428081 0.16063223 -2.62425923 0.0818068 0 0 Z " transform="translate(549.9892578125,102.93798828125)" style="fill: #FEFEFE;"/><path d="M0 0 C23.76 0 47.52 0 72 0 C72 35.31 72 70.62 72 107 C48.24 107 24.48 107 0 107 C0 71.69 0 36.38 0 0 Z " transform="translate(648,422)" style="fill: #000000;"/><path d="M0 0 C23.76 0 47.52 0 72 0 C72 35.31 72 70.62 72 107 C48.24 107 24.48 107 0 107 C0 71.69 0 36.38 0 0 Z " transform="translate(432,422)" style="fill: #010101;"/><path d="" transform="translate(0,0)" style="fill: #FFFFFF;"/><path d="" transform="translate(0,0)" style="fill: #FFFFFF;"/></svg>