<?xml version="1.0" encoding="UTF-8"?>
<!-- Generator: visioncortex VTracer -->
<svg id="svg" version="1.1" xmlns="http://www.w3.org/2000/svg" style="display: block;" viewBox="0 0 1104 974"><path d="M0 0 C48.53007064 -1.07273265 90.37279243 15.50812492 125.62988281 48.91748047 C131.45947801 54.61842253 136.63150599 60.597626 141.58691406 67.06201172 C143.33159062 69.29536574 145.08481466 71.52197911 146.83691406 73.74951172 C147.2989624 74.33893555 147.76101074 74.92835938 148.23706055 75.53564453 C151.67830504 79.92259705 155.15771322 84.27766618 158.64941406 88.62451172 C163.20058332 94.29470145 167.66125764 100.02584424 172.07910156 105.80029297 C174.78222046 109.32680035 177.5261779 112.82061569 180.27441406 116.31201172 C180.73444824 116.89764893 181.19448242 117.48328613 181.66845703 118.08666992 C183.71493574 120.69064274 185.76795241 123.28830966 187.83691406 125.87451172 C188.79597656 127.08107422 188.79597656 127.08107422 189.77441406 128.31201172 C190.32484375 128.99779297 190.87527344 129.68357422 191.44238281 130.39013672 C192.58691406 132.06201172 192.58691406 132.06201172 192.58691406 134.06201172 C193.24691406 134.06201172 193.90691406 134.06201172 194.58691406 134.06201172 C195.94467448 135.69680397 197.22092546 137.39940119 198.46191406 139.12451172 C201.97147726 143.93249795 205.59369207 148.62123822 209.33691406 153.24951172 C213.65441929 158.60169965 217.86910699 164.02055592 222.02441406 169.49951172 C226.86538645 175.87700134 231.84383338 182.12225435 236.91601562 188.31689453 C241.509732 193.93701505 245.94820872 199.65899297 250.34130859 205.43701172 C251.69049708 207.19714472 253.05696131 208.9428753 254.42675781 210.68701172 C255.1253894 211.58093628 255.1253894 211.58093628 255.83813477 212.49291992 C256.73535635 213.64015811 257.63608996 214.78466069 258.54077148 215.92602539 C261.58691406 219.83740274 261.58691406 219.83740274 261.58691406 222.06201172 C262.24691406 222.06201172 262.90691406 222.06201172 263.58691406 222.06201172 C264.80102539 223.36865234 264.80102539 223.36865234 266.16894531 225.21826172 C266.68231445 225.90315674 267.19568359 226.58805176 267.72460938 227.29370117 C268.27729492 228.04224365 268.82998047 228.79078613 269.39941406 229.56201172 C273.9297162 235.60093242 278.54222742 241.54315527 283.33691406 247.37451172 C287.79663208 252.8120183 292.08721936 258.33694099 296.27050781 263.99169922 C300.00818281 268.94585191 303.91694894 273.7613535 307.80566406 278.59716797 C311.89071627 283.67754205 315.87543203 288.83234741 319.84472656 294.00341797 C320.25013672 294.53136963 320.65554688 295.05932129 321.07324219 295.60327148 C321.91378137 296.69827838 322.75362862 297.79381676 323.59277344 298.88989258 C325.92476606 301.92867064 328.28196209 304.94429311 330.67285156 307.93701172 C331.17977539 308.57356689 331.68669922 309.21012207 332.20898438 309.8659668 C333.19641659 311.10346509 334.18784201 312.33778961 335.18359375 313.56860352 C338.58691406 317.84000462 338.58691406 317.84000462 338.58691406 320.06201172 C339.24691406 320.06201172 339.90691406 320.06201172 340.58691406 320.06201172 C342.51879996 322.46406018 344.34559892 324.8788108 346.14941406 327.37451172 C347.24130136 328.85895655 348.33506059 330.34202626 349.43066406 331.82373047 C349.96949219 332.55253418 350.50832031 333.28133789 351.06347656 334.03222656 C353.70138499 337.54690135 356.5089216 340.91472117 359.31347656 344.29638672 C366.35379526 352.86089813 373.08281381 361.6837757 379.82910156 370.47998047 C383.81180892 375.66346664 387.83485731 380.81575428 391.85375977 385.97119141 C392.42441162 386.70370117 392.99506348 387.43621094 393.58300781 388.19091797 C394.3437561 389.16653687 394.3437561 389.16653687 395.11987305 390.16186523 C395.60399658 390.78891357 396.08812012 391.41596191 396.58691406 392.06201172 C397.14386963 392.76060303 397.7008252 393.45919434 398.2746582 394.17895508 C399.58691406 396.06201172 399.58691406 396.06201172 399.58691406 398.06201172 C400.24691406 398.06201172 400.90691406 398.06201172 401.58691406 398.06201172 C403.09472656 399.74169922 403.09472656 399.74169922 404.71191406 401.93701172 C405.25074219 402.65630859 405.78957031 403.37560547 406.34472656 404.11669922 C407.58691406 406.06201172 407.58691406 406.06201172 407.58691406 408.06201172 C408.24691406 408.06201172 408.90691406 408.06201172 409.58691406 408.06201172 C410.98744495 409.73721569 412.30589119 411.48124264 413.58691406 413.24951172 C414.40122078 414.36077359 415.21635325 415.47143075 416.03222656 416.58154297 C416.66499512 417.44706787 416.66499512 417.44706787 417.31054688 418.33007812 C419.32342802 421.06140537 421.38953098 423.75069596 423.46191406 426.43701172 C423.87578369 426.97422852 424.28965332 427.51144531 424.71606445 428.06494141 C429.63003681 434.43096198 434.6087717 440.74614601 439.58691406 447.06201172 C442.80052552 451.13918287 446.01068496 455.21897171 449.2109375 459.30664062 C450.15270799 460.50808311 451.09614932 461.70821724 452.04101562 462.90722656 C453.45685004 464.70519422 454.86629754 466.50799655 456.27441406 468.31201172 C456.70890869 468.86123291 457.14340332 469.4104541 457.59106445 469.97631836 C460.58691406 473.8338955 460.58691406 473.8338955 460.58691406 476.06201172 C461.24691406 476.06201172 461.90691406 476.06201172 462.58691406 476.06201172 C463.92325456 477.67662907 465.17841307 479.35850013 466.39941406 481.06201172 C470.13904427 486.19777053 474.05353875 491.15403452 478.08691406 496.06201172 C482.63838425 501.61525028 487.0261533 507.25095481 491.29394531 513.02685547 C493.41855677 515.83916059 495.60295199 518.58440339 497.82324219 521.32080078 C538.05622224 570.92417168 563.35985905 628.89594437 556.83691406 693.87451172 C554.11287275 717.37860419 547.66087579 741.09720384 536.58691406 762.06201172 C536.26142578 762.69333008 535.9359375 763.32464844 535.60058594 763.97509766 C529.97456754 774.82680108 523.23235048 784.54027591 515.58691406 794.06201172 C515.09288086 794.67850586 514.59884766 795.295 514.08984375 795.93017578 C488.8999765 827.03924616 453.50964368 848.29317334 414.58691406 857.31201172 C413.94890869 857.4631543 413.31090332 857.61429688 412.65356445 857.77001953 C394.66499188 861.65304433 376.3272753 861.42558796 358.02440262 861.37966537 C355.81500207 861.37446009 353.60561561 861.37251941 351.39620972 861.3710022 C329.51326013 861.34485939 307.79709574 860.76805008 286.03128052 858.33236694 C283.18033227 858.01704239 280.32789976 857.71715657 277.4753418 857.41674805 C261.77100859 855.74278844 246.1437357 853.70804085 230.52441406 851.37451172 C228.7888475 851.1164827 228.7888475 851.1164827 227.01821899 850.85324097 C190.88219174 845.45547804 155.20092044 838.18110194 119.58691406 830.06201172 C118.82100952 829.88756531 118.05510498 829.7131189 117.26599121 829.53338623 C89.22843846 823.13699495 61.34906732 816.22399874 33.78369141 808.00683594 C29.62969043 806.77909928 25.46672749 805.5833714 21.3036499 804.38684082 C4.32622856 799.50456325 -12.57467414 794.40699868 -29.41308594 789.06201172 C-30.44341949 788.7355365 -30.44341949 788.7355365 -31.49456787 788.40246582 C-50.28694897 782.44436294 -68.98873327 776.25056127 -87.60058594 769.74951172 C-88.41749908 769.46500153 -89.23441223 769.18049133 -90.07608032 768.88735962 C-99.31512634 765.66384406 -108.47313015 762.29130535 -117.57507324 758.69895935 C-123.04409069 756.55560865 -128.55866267 754.5836026 -134.11230469 752.67138672 C-141.35834312 750.17313769 -148.53292843 747.52700647 -155.68261719 744.76513672 C-157.10379349 744.21811096 -157.10379349 744.21811096 -158.55368042 743.66003418 C-162.42326861 742.16943869 -166.29200617 740.67703791 -170.15405273 739.16699219 C-184.33924293 733.63044073 -198.24985213 728.39994603 -213.72558594 728.62451172 C-214.91051636 728.63804687 -214.91051636 728.63804687 -216.11938477 728.65185547 C-241.38164435 729.37456638 -260.24741208 741.32795839 -278.41308594 758.06201172 C-284.02936501 763.06201172 -284.02936501 763.06201172 -286.41308594 763.06201172 C-286.41308594 763.72201172 -286.41308594 764.38201172 -286.41308594 765.06201172 C-288.13260568 766.60052938 -289.91496091 768.06932931 -291.72558594 769.49951172 C-295.57775596 772.51436741 -295.57775596 772.51436741 -299.14355469 775.84716797 C-300.41308594 777.06201172 -300.41308594 777.06201172 -302.41308594 777.06201172 C-302.41308594 777.72201172 -302.41308594 778.38201172 -302.41308594 779.06201172 C-303.9246014 780.41298546 -305.50121907 781.69128517 -307.10058594 782.93701172 C-311.54605426 786.48653841 -315.76800096 790.16763752 -319.91308594 794.06201172 C-324.72116431 798.56568253 -329.67127715 802.79976388 -334.81152344 806.92529297 C-337.36295323 809.02083665 -339.79635367 811.20164326 -342.22558594 813.43701172 C-363.96460395 833.17147799 -386.02821639 844.61036189 -415.93115234 843.25292969 C-431.84715051 842.02862214 -447.54040197 834.60204748 -459.41308594 824.06201172 C-459.41308594 823.40201172 -459.41308594 822.74201172 -459.41308594 822.06201172 C-460.73308594 821.40201172 -462.05308594 820.74201172 -463.41308594 820.06201172 C-463.41308594 819.40201172 -463.41308594 818.74201172 -463.41308594 818.06201172 C-464.07308594 818.06201172 -464.73308594 818.06201172 -465.41308594 818.06201172 C-467.08038047 816.05638137 -468.60043544 814.06359869 -470.10058594 811.93701172 C-470.54539307 811.30899658 -470.9902002 810.68098145 -471.44848633 810.03393555 C-482.85252714 793.53906189 -487.77763835 776.77931712 -487.72558594 756.81201172 C-487.74975586 754.98089844 -487.74975586 754.98089844 -487.77441406 753.11279297 C-487.78500093 733.10360817 -480.43757417 716.47955779 -471.41308594 699.06201172 C-470.70925781 697.69351074 -470.70925781 697.69351074 -469.99121094 696.29736328 C-464.86748719 686.33713484 -459.74725468 676.41731986 -453.98730469 666.80810547 C-452.16130552 663.62280171 -450.5273021 660.35761038 -448.91308594 657.06201172 C-446.73093521 652.61977631 -444.44605317 648.31377814 -441.91308594 644.06201172 C-439.50317389 640.00825238 -437.30238511 635.92106717 -435.22558594 631.68701172 C-429.79007076 620.64612152 -423.7394136 609.92902071 -417.81054688 599.14794922 C-412.40616739 589.31337024 -407.06196152 579.48964612 -402.12011719 569.41357422 C-399.80585149 564.86977567 -397.28113301 560.45731736 -394.75268555 556.03027344 C-391.6509531 550.56799488 -388.86131924 544.99804453 -386.09277344 539.35888672 C-384.47413122 536.18183083 -382.73647473 533.1253049 -380.91308594 530.06201172 C-378.50317389 526.00825238 -376.30238511 521.92106717 -374.22558594 517.68701172 C-371.23924172 511.61455677 -368.05069974 505.67771464 -364.78808594 499.74951172 C-360.31605105 491.62059766 -355.97968014 483.43200884 -351.72558594 475.18701172 C-347.79341307 467.56737576 -343.76796728 460.03075828 -339.50732422 452.59033203 C-336.69311216 447.64445453 -334.14805565 442.59478253 -331.64453125 437.48608398 C-328.22743592 430.57073313 -324.49588577 423.83368537 -320.77636719 417.07763672 C-317.3509073 410.83684976 -314.12237044 404.53953605 -310.98730469 398.14794922 C-308.88095695 394.01888046 -306.51136868 390.06839461 -304.14355469 386.08544922 C-302.37897265 383.00240971 -300.7898124 379.87606422 -299.22558594 376.68701172 C-293.79007076 365.64612152 -287.7394136 354.92902071 -281.81054688 344.14794922 C-276.47627136 334.44094142 -271.19836135 324.74474268 -266.31152344 314.80419922 C-260.49605069 303.17973696 -254.01985817 291.86110536 -247.60058594 280.56201172 C-244.28759625 274.72282174 -241.22864923 268.79274495 -238.26074219 262.76904297 C-234.47321769 255.11779039 -230.42126577 247.59911868 -226.41308594 240.06201172 C-225.53692627 238.41434814 -225.53692627 238.41434814 -224.64306641 236.73339844 C-211.99924202 212.97456865 -211.99924202 212.97456865 -205.3425293 201.3112793 C-202.43137252 196.17872444 -199.82501214 190.91963916 -197.22558594 185.62451172 C-194.87584174 181.00604898 -192.31750211 176.52209643 -189.74902344 172.02294922 C-187.33173806 167.7639226 -185.07210951 163.4600227 -182.91308594 159.06201172 C-180.09397535 153.32635584 -177.04321385 147.77151826 -173.88305664 142.22070312 C-171.20379499 137.5020035 -168.623399 132.74101952 -166.10058594 127.93701172 C-143.07327858 84.21157253 -143.07327858 84.21157253 -128.41308594 66.06201172 C-127.64351563 65.06556641 -126.87394531 64.06912109 -126.08105469 63.04248047 C-125.365625 62.12080078 -124.65019531 61.19912109 -123.91308594 60.24951172 C-123.28402344 59.43869141 -122.65496094 58.62787109 -122.00683594 57.79248047 C-121.48089844 57.22142578 -120.95496094 56.65037109 -120.41308594 56.06201172 C-119.75308594 56.06201172 -119.09308594 56.06201172 -118.41308594 56.06201172 C-118.04183594 55.19576172 -118.04183594 55.19576172 -117.66308594 54.31201172 C-116.23008605 51.73261193 -114.62883917 50.0007958 -112.41308594 48.06201172 C-111.75308594 48.06201172 -111.09308594 48.06201172 -110.41308594 48.06201172 C-110.41308594 47.40201172 -110.41308594 46.74201172 -110.41308594 46.06201172 C-80.9346001 18.57916805 -40.34792673 1.03686497 0 0 Z " transform="translate(540.4130859375,65.93798828125)" style="fill: #04573D;"/><path d="M0 0 C30.36 0 60.72 0 92 0 C92 45.87 92 91.74 92 139 C61.64 139 31.28 139 0 139 C0 93.13 0 47.26 0 0 Z " transform="translate(652,427)" style="fill: #FFFFFF;"/><path d="M0 0 C30.36 0 60.72 0 92 0 C92 45.54 92 91.08 92 138 C61.64 138 31.28 138 0 138 C0 92.46 0 46.92 0 0 Z " transform="translate(398,427)" style="fill: #FFFFFF;"/><path d="M0 0 C2.20354573 0.86644274 4.41218681 1.72000691 6.625 2.5625 C7.64851563 2.95566406 8.67203125 3.34882812 9.7265625 3.75390625 C12.72197728 4.89416558 15.7218414 6.02191803 18.72363281 7.14526367 C21.31920807 8.11985709 23.91153781 9.1028466 26.50390625 10.0859375 C36.57087205 13.89380844 46.62034709 17.66724819 56.87890625 20.9296875 C60.3391826 22.11631543 63.64400611 23.54549173 67 25 C69.55056388 26.01151713 72.117288 26.97717302 74.6875 27.9375 C75.31849609 28.17662109 75.94949219 28.41574219 76.59960938 28.66210938 C81.47685132 30.49047208 86.40295512 32.14445915 91.34790039 33.77954102 C95.79061636 35.26420825 100.21957031 36.78711446 104.6484375 38.3125 C106.41403799 38.91934214 108.17966341 39.52611178 109.9453125 40.1328125 C112.65947839 41.06559292 115.37326731 41.99940142 118.0859375 42.93652344 C127.76017662 46.27694006 137.40669066 49.53637821 147.28417969 52.23071289 C149.53985056 52.86965742 151.69540504 53.58078974 153.875 54.4375 C165.38843851 58.94592013 177.50830529 62.03598814 189.390625 65.40234375 C194.18647144 66.76307671 198.97225997 68.15621595 203.75585938 69.55932617 C223.20552036 75.26386226 242.67884747 80.75804594 262.36328125 85.59765625 C266.67641207 86.66115796 270.96999238 87.7825365 275.25854492 88.94067383 C283.78982471 91.24322439 292.35913332 93.22712095 301.00292969 95.06152344 C305.93778461 96.110564 310.85966817 97.18969143 315.765625 98.3671875 C348.54192043 106.22886914 381.74848454 111.85487211 415.08624268 116.71868896 C417.68277564 117.10036399 420.27695013 117.49697746 422.87109375 117.89453125 C468.15642477 124.74833682 513.25649274 126.40355063 559 127 C555.8036562 129.13089587 554.9767129 129.25447378 551.30541992 129.2746582 C550.34578339 129.28405426 549.38614685 129.29345032 548.39743042 129.3031311 C546.82978439 129.30196793 546.82978439 129.30196793 545.23046875 129.30078125 C544.13880402 129.30628998 543.04713928 129.31179871 541.9223938 129.31747437 C538.34396773 129.32925288 534.76592715 129.32280186 531.1875 129.3125 C529.96872162 129.31134186 528.74994324 129.31018372 527.49423218 129.30899048 C512.05905443 129.27994814 496.69694524 128.98363759 481.3125 127.6875 C480.61434174 127.62873688 479.91618347 127.56997375 479.1968689 127.50942993 C474.12439419 127.06859145 469.06262748 126.54097843 464 126 C463.02352509 125.89797272 462.04705017 125.79594543 461.04098511 125.69082642 C444.28159296 123.93352442 427.60331973 121.80237611 410.9375 119.3125 C409.78045563 119.14048065 408.62341125 118.9684613 407.43130493 118.79122925 C371.29527767 113.39346632 335.61400638 106.11909022 300 98 C299.23409546 97.82555359 298.46819092 97.65110718 297.67907715 97.47137451 C269.6415244 91.07498323 241.76215325 84.16198702 214.19677734 75.94482422 C210.04277637 74.71708756 205.87981343 73.52135968 201.71673584 72.3248291 C184.7393145 67.44255153 167.8384118 62.34498696 151 57 C150.31311096 56.78234985 149.62622192 56.56469971 148.91851807 56.3404541 C130.12613696 50.38235122 111.42435267 44.18854955 92.8125 37.6875 C91.99558685 37.40298981 91.17867371 37.11847961 90.33700562 36.8253479 C81.0979596 33.60183234 71.93995579 30.22929363 62.8380127 26.63694763 C57.36899525 24.49359693 51.85442327 22.52159089 46.30078125 20.609375 C39.05474282 18.11112597 31.88015751 15.46499475 24.73046875 12.703125 C23.78301788 12.33844116 22.83556702 11.97375732 21.85940552 11.59802246 C17.98981733 10.10742697 14.12107977 8.61502619 10.2590332 7.10498047 C-3.92615699 1.56842901 -17.83676619 -3.66206569 -33.3125 -3.4375 C-34.49743042 -3.42396484 -34.49743042 -3.42396484 -35.70629883 -3.41015625 C-60.96855842 -2.68744534 -79.83432614 9.26594667 -98 26 C-103.61627907 31 -103.61627907 31 -106 31 C-106 31.66 -106 32.32 -106 33 C-107.71951974 34.53851766 -109.50187497 36.00731759 -111.3125 37.4375 C-115.16467002 40.45235569 -115.16467002 40.45235569 -118.73046875 43.78515625 C-120 45 -120 45 -122 45 C-122 45.66 -122 46.32 -122 47 C-123.51151546 48.35097374 -125.08813313 49.62927345 -126.6875 50.875 C-131.13296832 54.42452669 -135.35491502 58.1056258 -139.5 62 C-144.30807837 66.50367081 -149.25819121 70.73775217 -154.3984375 74.86328125 C-156.94986729 76.95882494 -159.38326773 79.13963155 -161.8125 81.375 C-183.55151801 101.10946627 -205.61513045 112.54835017 -235.51806641 111.19091797 C-251.43406457 109.96661042 -267.12731603 102.54003577 -279 92 C-279 91.34 -279 90.68 -279 90 C-280.32 89.34 -281.64 88.68 -283 88 C-283 87.34 -283 86.68 -283 86 C-283.66 86 -284.32 86 -285 86 C-286.71475539 83.84609994 -288.30644878 81.69429308 -289.875 79.4375 C-290.30941406 78.82841797 -290.74382812 78.21933594 -291.19140625 77.59179688 C-299.67350192 65.55639085 -299.67350192 65.55639085 -299 60 C-296.66097771 62.93117983 -294.76773052 66.03539017 -292.89282227 69.27905273 C-282.2238475 87.67910256 -266.47109586 100.50686712 -245.83984375 106.30859375 C-244.90269531 106.53675781 -243.96554688 106.76492188 -243 107 C-241.84757812 107.28617188 -241.84757812 107.28617188 -240.671875 107.578125 C-218.46618905 111.08428594 -197.25596385 104.80249003 -179.125 92.0625 C-174.71700022 88.69399868 -170.60715791 85.04505231 -166.53125 81.28515625 C-163.92148374 78.92911726 -161.23512364 76.70884282 -158.5 74.5 C-153.97400672 70.83579669 -149.62436929 67.02241167 -145.31640625 63.10546875 C-140.87608701 59.06949561 -136.34362154 55.14247821 -131.77734375 51.25 C-126.21877521 46.50920677 -120.69062026 41.75913783 -115.3125 36.8125 C-110.92266752 32.78259522 -106.37821865 29.00947233 -101.734375 25.27734375 C-98.96468722 22.9705895 -96.36511213 20.54221431 -93.75 18.0625 C-68.70954099 -4.90317812 -31.92064339 -14.38399363 0 0 Z " transform="translate(360,798)" style="fill: #002D10;"/><path d="M0 0 C48.53007064 -1.07273265 90.37279243 15.50812492 125.62988281 48.91748047 C131.45982011 54.61875708 136.62908273 60.59928931 141.58691406 67.06201172 C142.95687318 68.80887716 144.33184276 70.55173427 145.70678711 72.29467773 C150.35978524 78.19655978 154.98265285 84.12204333 159.58691406 90.06201172 C158.10191406 90.55701172 158.10191406 90.55701172 156.58691406 91.06201172 C155.88566406 90.16740234 155.18441406 89.27279297 154.46191406 88.35107422 C147.0384207 78.88273966 147.0384207 78.88273966 139.53222656 69.47998047 C138.1833413 67.803354 136.84552281 66.11778701 135.51660156 64.42529297 C109.45079982 31.67954562 69.90667016 8.2674648 28.06347656 3.37841797 C-20.5509728 -0.6102851 -65.92145054 12.87694702 -103.41308594 44.06201172 C-119.21945379 57.53390063 -131.64419941 73.37199812 -142.41308594 91.06201172 C-143.12774948 92.21186332 -143.84260445 93.36159597 -144.55761719 94.51123047 C-148.79091101 101.37861423 -152.64389705 108.33171935 -156.18017578 115.58154297 C-160.51924835 124.42518818 -165.33954195 133.01196801 -170.08544922 141.64160156 C-171.71160761 144.6062456 -173.31558406 147.58183095 -174.91308594 150.56201172 C-176.95086643 154.36126348 -179.00677714 158.1497891 -181.08105469 161.92919922 C-186.96131455 172.65139929 -192.74024953 183.41353646 -198.31616211 194.29785156 C-201.11694517 199.72816953 -204.10002385 204.92706612 -207.41308594 210.06201172 C-208.07308594 209.40201172 -208.73308594 208.74201172 -209.41308594 208.06201172 C-208.98898437 207.35818359 -208.56488281 206.65435547 -208.12792969 205.92919922 C-204.88482841 200.46938477 -201.83667023 195.01404528 -199.03808594 189.31201172 C-196.49010432 184.12464107 -193.77921394 179.07984761 -190.91308594 174.06201172 C-188.09533637 169.12651583 -185.41891673 164.16648184 -182.91308594 159.06201172 C-180.09397535 153.32635584 -177.04321385 147.77151826 -173.88305664 142.22070312 C-171.20379499 137.5020035 -168.623399 132.74101952 -166.10058594 127.93701172 C-143.07327858 84.21157253 -143.07327858 84.21157253 -128.41308594 66.06201172 C-127.64351563 65.06556641 -126.87394531 64.06912109 -126.08105469 63.04248047 C-125.365625 62.12080078 -124.65019531 61.19912109 -123.91308594 60.24951172 C-122.96949219 59.03328125 -122.96949219 59.03328125 -122.00683594 57.79248047 C-121.48089844 57.22142578 -120.95496094 56.65037109 -120.41308594 56.06201172 C-119.75308594 56.06201172 -119.09308594 56.06201172 -118.41308594 56.06201172 C-118.04183594 55.19576172 -118.04183594 55.19576172 -117.66308594 54.31201172 C-116.23008605 51.73261193 -114.62883917 50.0007958 -112.41308594 48.06201172 C-111.75308594 48.06201172 -111.09308594 48.06201172 -110.41308594 48.06201172 C-110.41308594 47.40201172 -110.41308594 46.74201172 -110.41308594 46.06201172 C-80.9346001 18.57916805 -40.34792673 1.03686497 0 0 Z " transform="translate(540.4130859375,65.93798828125)" style="fill: #003013;"/><path d="M0 0 C0.99 0 1.98 0 3 0 C4.875 2.1328125 4.875 2.1328125 7 5.125 C7.80305111 6.23556012 8.60781032 7.34488663 9.4140625 8.453125 C10.04683105 9.32807617 10.04683105 9.32807617 10.69238281 10.22070312 C12.85183698 13.15910902 15.11255553 16.01560555 17.375 18.875 C17.82786377 19.45040527 18.28072754 20.02581055 18.74731445 20.61865234 C21.20000611 23.73289412 23.66677314 26.83535499 26.14453125 29.9296875 C26.90854248 30.8889917 26.90854248 30.8889917 27.68798828 31.86767578 C28.67055621 33.10108489 29.65707656 34.33135808 30.64794922 35.55810547 C34 39.77488463 34 39.77488463 34 42 C34.66 42 35.32 42 36 42 C37.35776041 43.63479225 38.6340114 45.33738947 39.875 47.0625 C43.3845632 51.87048623 47.00677801 56.5592265 50.75 61.1875 C55.06750522 66.53968793 59.28219292 71.9585442 63.4375 77.4375 C68.27847239 83.81498963 73.25691932 90.06024263 78.32910156 96.25488281 C82.92281794 101.87500333 87.36129465 107.59698126 91.75439453 113.375 C93.10358302 115.135133 94.47004725 116.88086358 95.83984375 118.625 C96.30559814 119.22094971 96.77135254 119.81689941 97.2512207 120.4309082 C98.14844229 121.5781464 99.04917589 122.72264897 99.95385742 123.86401367 C103 127.77539102 103 127.77539102 103 130 C103.66 130 104.32 130 105 130 C106.21411133 131.30664062 106.21411133 131.30664062 107.58203125 133.15625 C108.09540039 133.84114502 108.60876953 134.52604004 109.13769531 135.23168945 C109.96672363 136.35450317 109.96672363 136.35450317 110.8125 137.5 C115.34280214 143.5389207 119.95531336 149.48114355 124.75 155.3125 C129.20971802 160.75000658 133.5003053 166.27492927 137.68359375 171.9296875 C141.42126875 176.8838402 145.33003488 181.69934178 149.21875 186.53515625 C153.30380221 191.61553034 157.28851797 196.77033569 161.2578125 201.94140625 C161.66322266 202.46935791 162.06863281 202.99730957 162.48632812 203.54125977 C163.32686731 204.63626666 164.16671456 205.73180504 165.00585938 206.82788086 C167.337852 209.86665892 169.69504803 212.88228139 172.0859375 215.875 C172.59286133 216.51155518 173.09978516 217.14811035 173.62207031 217.80395508 C174.60950252 219.04145337 175.60092795 220.27577789 176.59667969 221.5065918 C180 225.77799291 180 225.77799291 180 228 C180.66 228 181.32 228 182 228 C183.9318859 230.40204846 185.75868486 232.81679908 187.5625 235.3125 C188.6543873 236.79694484 189.74814653 238.28001454 190.84375 239.76171875 C191.65199219 240.85492432 191.65199219 240.85492432 192.4765625 241.97021484 C195.11447093 245.48488963 197.92200754 248.85270945 200.7265625 252.234375 C207.7668812 260.79888641 214.49589975 269.62176398 221.2421875 278.41796875 C225.22489486 283.60145492 229.24794325 288.75374256 233.2668457 293.90917969 C233.83749756 294.64168945 234.40814941 295.37419922 234.99609375 296.12890625 C235.50325928 296.77931885 236.0104248 297.42973145 236.53295898 298.09985352 C237.01708252 298.72690186 237.50120605 299.3539502 238 300 C238.55695557 300.69859131 239.11391113 301.39718262 239.68774414 302.11694336 C241 304 241 304 241 306 C241.66 306 242.32 306 243 306 C244.5078125 307.6796875 244.5078125 307.6796875 246.125 309.875 C246.66382813 310.59429687 247.20265625 311.31359375 247.7578125 312.0546875 C249 314 249 314 249 316 C249.66 316 250.32 316 251 316 C252.40053089 317.67520398 253.71897712 319.41923092 255 321.1875 C255.81430672 322.29876187 256.62943919 323.40941904 257.4453125 324.51953125 C257.8671582 325.09654785 258.28900391 325.67356445 258.72363281 326.26806641 C260.73651626 328.99939678 262.80273336 331.68859113 264.875 334.375 C265.28741943 334.9107666 265.69983887 335.4465332 266.12475586 335.99853516 C268.78352218 339.44506515 271.46748765 342.87099171 274.16333008 346.28857422 C278.20687467 351.41514812 282.23427655 356.55331529 286.1875 361.75 C286.92355469 362.71421875 287.65960937 363.6784375 288.41796875 364.671875 C290 367 290 367 290 369 C289.34 369 288.68 369 288 369 C286.51556315 367.26406765 285.11537809 365.4560534 283.75 363.625 C282.84838867 362.42783346 281.94600088 361.23125143 281.04296875 360.03515625 C280.55489746 359.38562988 280.06682617 358.73610352 279.56396484 358.06689453 C276.76686845 354.37032599 273.91236157 350.71844194 271.0625 347.0625 C270.46493896 346.29470215 269.86737793 345.5269043 269.25170898 344.73583984 C263.40069872 337.22094109 257.51702496 329.7319158 251.62207031 322.25146484 C246.29775758 315.49454312 241.00166417 308.718804 235.76708984 301.89208984 C231.36009633 296.15206324 226.88346272 290.4674576 222.40429688 284.78369141 C220.98101709 282.97588854 219.56040208 281.1660235 218.140625 279.35546875 C214.09536507 274.19772757 210.04644207 269.04479948 205.9375 263.9375 C202.5381722 259.70215865 199.22249779 255.40560552 195.91943359 251.09521484 C191.00272218 244.68576372 185.99987431 238.34463143 181 232 C174.97603698 224.35182098 168.97330803 216.68783119 163 209 C155.04262311 198.7610847 147.05543761 188.54974729 138.9375 178.4375 C134.80416517 173.28753281 130.7356179 168.0944573 126.72290039 162.85009766 C120.57890328 154.82463217 114.32334484 146.88482388 108 139 C101.25942349 130.59491378 94.6093869 122.11925748 88.0625 113.5625 C83.93880636 108.17434975 79.71271628 102.87378755 75.46118164 97.58618164 C71.83881026 93.07229248 68.29445198 88.50528581 64.7824707 83.90527344 C61.64278648 79.80532504 58.42674146 75.77158058 55.1875 71.75 C50.89336009 66.41703326 46.70075647 61.01719191 42.5625 55.5625 C38.24444446 49.87410559 33.83622389 44.27625731 29.3125 38.75 C24.21758201 32.5253098 19.25574432 26.22367292 14.38769531 19.81884766 C12.76334706 17.68981978 11.12800512 15.56944605 9.4921875 13.44921875 C8.2864135 11.88284701 7.08068394 10.31644106 5.875 8.75 C5.29363281 7.9979126 4.71226562 7.2458252 4.11328125 6.47094727 C3.57832031 5.77412842 3.04335938 5.07730957 2.4921875 4.359375 C2.01120605 3.73514648 1.53022461 3.11091797 1.03466797 2.46777344 C0 1 0 1 0 0 Z " transform="translate(699,158)" style="fill: #003417;"/><path d="M0 0 C0.99 0.99 0.99 0.99 2 2 C-28.5069373 43.64954206 -67.93971047 74.16873799 -120 83 C-127.95465039 84.16998855 -135.94902812 85.15190513 -144 85 C-144.33 84.34 -144.66 83.68 -145 83 C-144.21052979 82.89977539 -143.42105957 82.79955078 -142.60766602 82.69628906 C-116.14322698 79.29792912 -91.75555469 74.70338212 -68 62 C-67.3385498 61.65453125 -66.67709961 61.3090625 -65.99560547 60.953125 C-38.42099198 46.51601357 -17.54547416 25.38575111 0 0 Z " transform="translate(1066,842)" style="fill: #002F12;"/><path d="M0 0 C0.99 0.495 0.99 0.495 2 1 C-1.4861814 8.1684605 -5.05472253 15.23386 -9.0625 22.125 C-11.42487284 26.19055665 -13.6851998 30.27351747 -15.75 34.5 C-18.51274995 40.12947436 -21.48725732 45.62685406 -24.5 51.125 C-25.00474854 52.04716309 -25.50949707 52.96932617 -26.02954102 53.91943359 C-27.10633826 55.88645184 -28.18324665 57.85340924 -29.26025391 59.8203125 C-32.41321284 65.58289139 -35.55593662 71.35077729 -38.6875 77.125 C-39.29980469 78.24535645 -39.91210938 79.36571289 -40.54296875 80.52001953 C-41.11015625 81.56786621 -41.67734375 82.61571289 -42.26171875 83.6953125 C-42.76662842 84.62359863 -43.27153809 85.55188477 -43.79174805 86.50830078 C-44.85535848 88.70171523 -45.53076842 90.61935515 -46 93 C-46.66 93 -47.32 93 -48 93 C-48.26296875 93.87398438 -48.5259375 94.74796875 -48.796875 95.6484375 C-49.9839655 98.95533248 -51.42058416 101.63365788 -53.25 104.625 C-56.3864497 109.85678145 -59.12902175 115.18760486 -61.73828125 120.69921875 C-63 123 -63 123 -65 124 C-64.39907574 120.1824391 -63.27482712 117.23121353 -61.48046875 113.81640625 C-60.9589624 112.81778564 -60.43745605 111.81916504 -59.90014648 110.7902832 C-59.05238647 109.19253052 -59.05238647 109.19253052 -58.1875 107.5625 C-57.60363525 106.45156982 -57.01977051 105.34063965 -56.41821289 104.19604492 C-50.72635686 93.40156941 -44.88262603 82.69134853 -39 72 C-33.13008575 61.32759395 -27.2762969 50.68185579 -21.90234375 39.75 C-15.14033256 26.2335203 -7.5831956 13.06986065 0 0 Z " transform="translate(296,341)" style="fill: #003315;"/><path d="M0 0 C0.99 0 1.98 0 3 0 C4.82095824 2.02093036 6.44084773 4.0148091 8.0625 6.1875 C8.54855713 6.82244385 9.03461426 7.4573877 9.53540039 8.11157227 C11.0316346 10.06841047 12.51595262 12.03391168 14 14 C15.64116025 16.14946233 17.28938496 18.29335034 18.9375 20.4375 C19.34258789 20.96730469 19.74767578 21.49710938 20.16503906 22.04296875 C22.82862167 25.51666366 25.5529377 28.9344902 28.31103516 32.33349609 C43.87367414 51.5501921 57.37036003 71.6442529 68 94 C67.01 94 66.02 94 65 94 C64.73485596 93.46334717 64.46971191 92.92669434 64.1965332 92.3737793 C57.43903284 78.81126153 49.90382087 66.25698055 41 54 C40.56381348 53.39800781 40.12762695 52.79601562 39.67822266 52.17578125 C35.31324702 46.18593864 30.73688876 40.37515511 26.08203125 34.609375 C23.34089423 31.17395375 20.67648524 27.68133891 18.01000977 24.18798828 C15.63282926 21.08605208 13.2208226 18.0172303 10.765625 14.9765625 C9.95109863 13.96758911 9.95109863 13.96758911 9.12011719 12.93823242 C8.06158322 11.63101635 6.99986471 10.32637087 5.93457031 9.0246582 C3.59523137 6.13633049 1.4499807 3.46096584 0 0 Z " transform="translate(1010,555)" style="fill: #003215;"/><path d="M0 0 C0.66 0.33 1.32 0.66 2 1 C0.86369792 5.95840907 -0.81531588 9.56043848 -3.59375 13.80078125 C-6.31492937 18.05640343 -8.62012188 22.54766677 -11 27 C-11.78249934 28.44794517 -12.56505527 29.89585976 -13.34765625 31.34375 C-14.16970838 32.87476515 -14.99132326 34.40601515 -15.8125 35.9375 C-16.20985352 36.67154053 -16.60720703 37.40558105 -17.01660156 38.16186523 C-17.38881836 38.85997314 -17.76103516 39.55808105 -18.14453125 40.27734375 C-18.47815674 40.89859131 -18.81178223 41.51983887 -19.15551758 42.15991211 C-20.03894855 44.08486708 -20.55110343 45.93416256 -21 48 C-21.66 48 -22.32 48 -23 48 C-23.22429687 48.79664063 -23.44859375 49.59328125 -23.6796875 50.4140625 C-25.37626618 55.02193005 -27.70868923 59.11082608 -30.125 63.375 C-33.62943655 69.64139317 -37.03363195 75.92470715 -40.1875 82.375 C-43.81001546 89.77151453 -47.82915 96.90068084 -52 104 C-52.71484375 102.390625 -52.71484375 102.390625 -53 100 C-51.62890625 97.109375 -51.62890625 97.109375 -49.5625 93.75 C-48.80103674 92.47874214 -48.04334023 91.20522188 -47.2890625 89.9296875 C-46.70753418 88.94693848 -46.70753418 88.94693848 -46.11425781 87.94433594 C-44.42020231 84.98827589 -42.92584131 81.93778168 -41.4375 78.875 C-37.70351709 71.25633102 -33.70804229 63.78254995 -29.6875 56.3125 C-28.37473283 53.87253944 -27.06215024 51.43247989 -25.75 48.9921875 C-25.42868103 48.39461136 -25.10736206 47.79703522 -24.77630615 47.18135071 C-20.55510464 39.32181198 -16.43275668 31.41093162 -12.30712891 23.50097656 C-9.57880823 18.28078288 -6.82944571 13.0716327 -4.08276367 7.86108398 C-3.69193604 7.11930908 -3.3011084 6.37753418 -2.8984375 5.61328125 C-2.38289307 4.63548706 -2.38289307 4.63548706 -1.85693359 3.63793945 C-1.22579247 2.43157882 -0.60887521 1.21775042 0 0 Z " transform="translate(214,493)" style="fill: #003215;"/><path d="M0 0 C0.66 0 1.32 0 2 0 C0.68487608 3.45373664 -0.82584224 6.64857742 -2.625 9.875 C-3.15609375 10.83921875 -3.6871875 11.8034375 -4.234375 12.796875 C-4.81703125 13.85390625 -5.3996875 14.9109375 -6 16 C-11.74315171 26.48955807 -17.00031044 37.13631285 -22 48 C-22.66 48 -23.32 48 -24 48 C-24.2475 48.804375 -24.495 49.60875 -24.75 50.4375 C-26.26078647 54.74324143 -28.10188856 58.85364007 -30 63 C-30.99 62.67 -31.98 62.34 -33 62 C-28.08360265 52.02979047 -23.03634361 42.12807645 -17.9375 32.25 C-17.3604834 31.12682373 -16.7834668 30.00364746 -16.18896484 28.84643555 C-12.34729642 21.42475864 -8.25973361 14.18864136 -4 7 C-2.65740601 4.67177941 -1.32770174 2.33675506 0 0 Z " transform="translate(92,723)" style="fill: #003316;"/><path d="M0 0 C0.66 0 1.32 0 2 0 C0 11 0 11 -0.50341797 13.39526367 C-1.94037754 20.53035539 -2.38364442 27.4164657 -2.375 34.6875 C-2.37628906 35.82074707 -2.37757812 36.95399414 -2.37890625 38.12158203 C-2.2777501 46.19453258 -1.24855012 53.32588259 1.125 61.0234375 C2 64 2 64 2 68 C1.34 68 0.68 68 0 68 C-0.46688425 66.71139947 -0.92282871 65.41883668 -1.375 64.125 C-1.63023438 63.40570312 -1.88546875 62.68640625 -2.1484375 61.9453125 C-4.7808815 52.84043738 -5.33717163 44.21403568 -5.3125 34.75 C-5.32861328 33.52925781 -5.34472656 32.30851563 -5.36132812 31.05078125 C-5.36706344 20.2110301 -3.54641888 10.23601389 0 0 Z " transform="translate(58,788)" style="fill: #004127;"/><path d="M0 0 C0 4.043712 -1.75943537 6.91988482 -3.5625 10.4375 C-3.92601562 11.15615234 -4.28953125 11.87480469 -4.6640625 12.61523438 C-7.32798372 17.82705237 -10.22517993 22.86568585 -13.2265625 27.890625 C-15.62363962 32.09342981 -17.73210103 36.41893872 -19.86132812 40.76171875 C-23.60805442 48.34247371 -27.78906358 55.66985142 -32 63 C-32.68359375 61.328125 -32.68359375 61.328125 -33 59 C-31.84765625 56.546875 -31.84765625 56.546875 -30.0625 53.75 C-27.33366318 49.28366162 -24.86119962 44.83528182 -22.5625 40.125 C-18.76267413 32.38726308 -14.76308972 24.75706579 -10.72579956 17.14129639 C-9.99252048 15.7565412 -9.26133461 14.37067553 -8.53225708 12.98370361 C-7.49855475 11.01860787 -6.45736949 9.05766587 -5.4140625 7.09765625 C-4.50068115 5.37301147 -4.50068115 5.37301147 -3.56884766 3.61352539 C-2 1 -2 1 0 0 Z " transform="translate(331,277)" style="fill: #003415;"/><path d="M0 0 C0.66 0.33 1.32 0.66 2 1 C0.35450046 7.18624512 -2.93586287 12.38743826 -6.125 17.875 C-10.36385375 25.26044116 -14.44045523 32.66090796 -18.16455078 40.31787109 C-21.78989765 47.72163934 -25.89503051 54.85431237 -30 62 C-30.71875 60.3984375 -30.71875 60.3984375 -31 58 C-29.92404662 55.73452038 -28.82158676 53.73813163 -27.5 51.625 C-26.74164093 50.35865235 -25.9865021 49.09037143 -25.234375 47.8203125 C-24.85345703 47.17868164 -24.47253906 46.53705078 -24.08007812 45.87597656 C-22.5077508 43.14501743 -21.12884075 40.33276688 -19.75 37.5 C-16.14135759 30.14937042 -12.21639478 22.98442607 -8.26269531 15.81445312 C-5.38995307 10.59504308 -2.6243382 5.3488898 0 0 Z " transform="translate(125,660)" style="fill: #003214;"/><path d="M0 0 C0.66 0.66 1.32 1.32 2 2 C-2.95951534 12.20424242 -8.21190132 22.24664189 -13.5625 32.25 C-13.87720245 32.84010864 -14.19190491 33.43021729 -14.5161438 34.03820801 C-18.83741818 42.13454206 -23.31978933 50.10636263 -28 58 C-28.66 57.34 -29.32 56.68 -30 56 C-29.57589844 55.29617188 -29.15179688 54.59234375 -28.71484375 53.8671875 C-25.47174248 48.40737305 -22.42358429 42.95203356 -19.625 37.25 C-17.07701906 32.06263073 -14.36619357 27.01780355 -11.5 22 C-7.38578976 14.79552171 -3.62608798 7.46204601 0 0 Z " transform="translate(156,602)" style="fill: #003212;"/><path d="M0 0 C1.24090897 0.02009628 2.48181793 0.04019257 3.7603302 0.06089783 C5.10413851 0.08808971 6.44794441 0.11540062 7.79174805 0.14282227 C9.17464896 0.16714423 10.55755838 0.19098673 11.94047546 0.21437073 C15.56879416 0.2770052 19.19696096 0.34612948 22.82513428 0.41662598 C26.53203452 0.48749662 30.2390419 0.55220124 33.94604492 0.61743164 C41.21113742 0.74617769 48.47608048 0.88178302 55.7409668 1.02172852 C52.43433535 3.22614948 51.44425978 3.27058376 47.60205078 3.26464844 C46.55343369 3.26772507 45.50481659 3.2708017 44.42442322 3.27397156 C43.29009354 3.26678604 42.15576385 3.25960052 40.98706055 3.25219727 C39.23112328 3.25150993 39.23112328 3.25150993 37.43971252 3.25080872 C34.95735667 3.24778423 32.47500274 3.23989214 29.99267578 3.22753906 C26.21794801 3.20941805 22.44346767 3.20702853 18.66870117 3.20727539 C16.25398554 3.20235462 13.83927155 3.19652388 11.42456055 3.18969727 C9.74432045 3.18802803 9.74432045 3.18802803 8.03013611 3.18632507 C1.54225969 3.1476659 -4.8178282 2.80892608 -11.2590332 2.02172852 C-11.2590332 1.69172852 -11.2590332 1.36172852 -11.2590332 1.02172852 C-7.42490159 0.11512311 -3.93457556 -0.07212053 0 0 Z " transform="translate(863.259033203125,923.978271484375)" style="fill: #003319;"/><path d="M0 0 C0.33 0 0.66 0 1 0 C2.87041894 7.10463477 3.27512595 13.60920343 3.1875 20.9375 C3.18685547 21.95779297 3.18621094 22.97808594 3.18554688 24.02929688 C3.14891716 30.40693681 2.76177382 36.66824818 2 43 C1.34 43 0.68 43 0 43 C0 28.81 0 14.62 0 0 Z " transform="translate(1095,717)" style="fill: #003615;"/><path d="M0 0 C5.59183533 0.74613695 10.30020603 2.60832598 15.48828125 4.74609375 C22.95670678 7.41279519 30.16749311 8.3310044 38.0625 8.625 C38.92810547 8.66367187 39.79371094 8.70234375 40.68554688 8.7421875 C42.79006359 8.83520481 44.8950009 8.91862669 47 9 C47.495 9.99 47.495 9.99 48 11 C30.16574499 11.65782088 15.8568035 10.00954744 0 1 C0 0.67 0 0.34 0 0 Z " transform="translate(94,898)" style="fill: #00260B;"/><path d="M0 0 C0.66 0 1.32 0 2 0 C5.47443904 8.24255218 8.61071505 16.53234142 11.3125 25.0625 C11.69365967 26.25709839 11.69365967 26.25709839 12.08251953 27.47583008 C14.66845729 35.79003307 14.66845729 35.79003307 15 40 C14.34 40.99 13.68 41.98 13 43 C12.80365967 42.28457031 12.60731934 41.56914063 12.4050293 40.83203125 C11.50299101 37.55362705 10.59529119 34.27681567 9.6875 31 C9.37876953 29.87464844 9.07003906 28.74929688 8.75195312 27.58984375 C7.08672962 21.59503913 5.2568541 15.79601166 3 10 C2.41597208 8.17341062 1.84945192 6.340978 1.3125 4.5 C1.06113281 3.6440625 0.80976562 2.788125 0.55078125 1.90625 C0.36902344 1.2771875 0.18726563 0.648125 0 0 Z " transform="translate(1078,653)" style="fill: #003216;"/><path d="M0 0 C0.66 0.99 1.32 1.98 2 3 C1.14340262 5.45005273 0.22573697 7.57434998 -0.9375 9.875 C-1.25726807 10.53250244 -1.57703613 11.19000488 -1.90649414 11.86743164 C-5.08715542 18.34137836 -8.50104568 24.69337412 -12 31 C-12.66 30.67 -13.32 30.34 -14 30 C-12.34044641 25.58592961 -10.26045024 21.44590316 -8.125 17.25 C-5.25290712 11.56294447 -2.51064786 5.85817834 0 0 Z " transform="translate(1082,810)" style="fill: #003218;"/><path d="M0 0 C0 3.57606358 -0.9564922 5.17838634 -2.625 8.32421875 C-3.16640625 9.35224609 -3.7078125 10.38027344 -4.265625 11.43945312 C-4.83796875 12.51130859 -5.4103125 13.58316406 -6 14.6875 C-6.57234375 15.77095703 -7.1446875 16.85441406 -7.734375 17.97070312 C-9.15079066 20.65008942 -10.57285515 23.32631751 -12 26 C-12.99 26 -13.98 26 -15 26 C-2.84759576 1.42379788 -2.84759576 1.42379788 0 0 Z " transform="translate(230,466)" style="fill: #002A11;"/><path d="M0 0 C0.99 0 1.98 0 3 0 C4.60546875 1.6796875 4.60546875 1.6796875 6.1875 3.875 C6.71730469 4.59429688 7.24710938 5.31359375 7.79296875 6.0546875 C9 8 9 8 9 10 C9.66 10 10.32 10 11 10 C12.7265625 12.1875 12.7265625 12.1875 14.625 15 C15.25664063 15.928125 15.88828125 16.85625 16.5390625 17.8125 C17.02117188 18.534375 17.50328125 19.25625 18 20 C17.67 20.66 17.34 21.32 17 22 C10.87181364 14.94495272 4.89594047 7.99463697 0 0 Z " transform="translate(992,532)" style="fill: #002F15;"/><path d="M0 0 C0.66 0.66 1.32 1.32 2 2 C-1.3 7.94 -4.6 13.88 -8 20 C-9 16 -9 16 -7.63671875 13.125 C-6.67185547 11.578125 -6.67185547 11.578125 -5.6875 10 C-2.65768095 5.10246651 -2.65768095 5.10246651 0 0 Z " transform="translate(307,320)" style="fill: #003518;"/><path d="M0 0 C1.1484375 1.546875 1.1484375 1.546875 2 4 C1.33168497 6.56865429 0.60698344 8.80991993 -0.375 11.25 C-0.6225 11.8996875 -0.87 12.549375 -1.125 13.21875 C-1.73639014 14.81777037 -2.36640959 16.40964556 -3 18 C-3.66 18 -4.32 18 -5 18 C-3.75971762 11.82777121 -2.10396411 5.93317878 0 0 Z " transform="translate(1088,791)" style="fill: #003016;"/><path d="M0 0 C7.92 3.96 7.92 3.96 16 8 C15.34 8.66 14.68 9.32 14 10 C9.38 7.69 4.76 5.38 0 3 C0 2.01 0 1.02 0 0 Z " transform="translate(613,79)" style="fill: #003A17;"/><path d="M0 0 C1.96276436 2.94414653 2.71733962 5.05898636 3.625 8.4375 C4.01558594 9.85869141 4.01558594 9.85869141 4.4140625 11.30859375 C5 14 5 14 5 18 C4.34 18 3.68 18 3 18 C0.5206176 11.75726932 -0.31985731 6.71700347 0 0 Z " transform="translate(55,838)" style="fill: #003114;"/><path d="M0 0 C0.66 0 1.32 0 2 0 C0.89309248 6.40593286 -0.33945169 12.71363856 -2 19 C-3.74345027 16.38797162 -4.03701147 15.2529683 -3.57421875 12.08984375 C-3.28160156 11.04957031 -2.98898438 10.00929688 -2.6875 8.9375 C-2.40261719 7.89464844 -2.11773437 6.85179687 -1.82421875 5.77734375 C-1.2496676 3.84129699 -0.63862243 1.91586729 0 0 Z " transform="translate(58,788)" style="fill: #002B11;"/><path d="M0 0 C0.66 0.33 1.32 0.66 2 1 C-2.29 5.29 -6.58 9.58 -11 14 C-11.33 13.01 -11.66 12.02 -12 11 C-11.34 11 -10.68 11 -10 11 C-9.7525 10.4225 -9.505 9.845 -9.25 9.25 C-7.81700012 6.67060021 -6.21575324 4.93878408 -4 3 C-3.34 3 -2.68 3 -2 3 C-2 2.34 -2 1.68 -2 1 C-1.34 0.67 -0.68 0.34 0 0 Z " transform="translate(432,111)" style="fill: #002A0E;"/><path d="M0 0 C0.66 0.66 1.32 1.32 2 2 C-0.31 6.29 -2.62 10.58 -5 15 C-5.66 14.67 -6.32 14.34 -7 14 C-5.23570801 9.02790438 -2.6060834 4.56561939 0 0 Z " transform="translate(371,201)" style="fill: #003C1E;"/><path d="M0 0 C0.99 0.33 1.98 0.66 3 1 C4.1875 3.5625 4.1875 3.5625 5 6 C5.66 6 6.32 6 7 6 C8.38938077 7.96147874 9.7260411 9.96166576 11 12 C10.01 12 9.02 12 8 12 C5.95703125 9.8828125 5.95703125 9.8828125 3.8125 7.125 C3.09707031 6.22007812 2.38164063 5.31515625 1.64453125 4.3828125 C0 2 0 2 0 0 Z " transform="translate(935,458)" style="fill: #002A12;"/><path d="M0 0 C0.33 0 0.66 0 1 0 C2.31281522 6.56407612 1.52653315 10.83354621 -1 17 C-1.33 17 -1.66 17 -2 17 C-1.03644647 5.47835991 -1.03644647 5.47835991 0 0 Z " transform="translate(1094,761)" style="fill: #003211;"/><path d="M0 0 C3.08824987 4.63237481 4.21070452 9.03342444 3.625 14.5 C3.41875 15.325 3.2125 16.15 3 17 C2.67 17 2.34 17 2 17 C1.66151348 15.10507994 1.32943089 13.20901534 1 11.3125 C0.814375 10.25675781 0.62875 9.20101562 0.4375 8.11328125 C0.04931926 5.35095938 -0.08259976 2.78257957 0 0 Z " transform="translate(1092,697)" style="fill: #002F11;"/><path d="M0 0 C3.63559661 3.43361902 6.36113346 6.7973607 9 11 C8.01 11 7.02 11 6 11 C4.17578125 9.03125 4.17578125 9.03125 2.3125 6.5 C1.68988281 5.6646875 1.06726563 4.829375 0.42578125 3.96875 C-0.04472656 3.3190625 -0.51523437 2.669375 -1 2 C-0.67 1.34 -0.34 0.68 0 0 Z " transform="translate(829,322)" style="fill: #003B1D;"/><path d="M0 0 C-0.33 0.66 -0.66 1.32 -1 2 C-3.72265625 2.6328125 -3.72265625 2.6328125 -7.0625 3.125 C-8.16722656 3.29257812 -9.27195312 3.46015625 -10.41015625 3.6328125 C-11.69212891 3.81457031 -11.69212891 3.81457031 -13 4 C-13 3.01 -13 2.02 -13 1 C-8.59085217 -0.10228696 -4.51617599 -0.07654536 0 0 Z " transform="translate(318,793)" style="fill: #00290D;"/><path d="M0 0 C0.66 0.33 1.32 0.66 2 1 C0.74194623 5.50802601 -0.90407165 8.4912812 -4 12 C-4.33 11.34 -4.66 10.68 -5 10 C-4.00390625 7.6171875 -4.00390625 7.6171875 -2.5625 4.875 C-1.85287109 3.50988281 -1.85287109 3.50988281 -1.12890625 2.1171875 C-0.75636719 1.41851562 -0.38382812 0.71984375 0 0 Z " transform="translate(278,373)" style="fill: #00250E;"/><path d="M0 0 C0.66 0.66 1.32 1.32 2 2 C1.01 4.31 0.02 6.62 -1 9 C-1.99 9 -2.98 9 -4 9 C-2.94124926 5.59687262 -1.99097846 2.98646769 0 0 Z " transform="translate(194,532)" style="fill: #003D20;"/><path d="M0 0 C0.66 0 1.32 0 2 0 C0.90931332 3.77545388 0.0916909 6.47043472 -3 9 C-3.33 8.34 -3.66 7.68 -4 7 C-3.22265625 5.2734375 -3.22265625 5.2734375 -2.0625 3.375 C-1.381875 2.26125 -0.70125 1.1475 0 0 Z " transform="translate(189,541)" style="fill: #002D10;"/><path d="M0 0 C0.66 0 1.32 0 2 0 C0.90931332 3.77545388 0.0916909 6.47043472 -3 9 C-3.33 8.34 -3.66 7.68 -4 7 C-3.22265625 5.2734375 -3.22265625 5.2734375 -2.0625 3.375 C-1.381875 2.26125 -0.70125 1.1475 0 0 Z " transform="translate(317,301)" style="fill: #00210E;"/><path d="M0 0 C0.66 0.66 1.32 1.32 2 2 C0.68 4.31 -0.64 6.62 -2 9 C-2.66 8.34 -3.32 7.68 -4 7 C-2.68 4.69 -1.36 2.38 0 0 Z " transform="translate(273,384)" style="fill: #00341D;"/><path d="M0 0 C0.66 0 1.32 0 2 0 C0.90931332 3.77545388 0.0916909 6.47043472 -3 9 C-3 5.30581799 -1.71820705 3.22163822 0 0 Z " transform="translate(335,267)" style="fill: #002D12;"/><path d="M0 0 C2.5 2.3125 2.5 2.3125 5 5 C5 5.99 5 6.98 5 8 C0.125 4.375 0.125 4.375 -1 1 C-0.67 0.67 -0.34 0.34 0 0 Z " transform="translate(755,227)" style="fill: #002711;"/><path d="M0 0 C1.53202706 0.25195908 3.05257128 0.57596777 4.5625 0.9375 C5.38878906 1.13214844 6.21507812 1.32679688 7.06640625 1.52734375 C8.02353516 1.76130859 8.02353516 1.76130859 9 2 C9 2.33 9 2.66 9 3 C2.9453125 3.1953125 2.9453125 3.1953125 1 3 C0.34 2.34 -0.32 1.68 -1 1 C-0.67 0.67 -0.34 0.34 0 0 Z " transform="translate(546,863)" style="fill: #003618;"/><path d="M0 0 C0.66 0.66 1.32 1.32 2 2 C1.01 3.98 0.02 5.96 -1 8 C-1.66 7.67 -2.32 7.34 -3 7 C-1.125 1.125 -1.125 1.125 0 0 Z " transform="translate(224,475)" style="fill: #003A17;"/><path d="M0 0 C1.65 1.65 3.3 3.3 5 5 C4.67 5.99 4.34 6.98 4 8 C2 6.25 2 6.25 0 4 C0 2.68 0 1.36 0 0 Z " transform="translate(897,408)" style="fill: #004317;"/><path d="M0 0 C0.99 0 1.98 0 3 0 C5.1875 3 5.1875 3 7 6 C6.01 6 5.02 6 4 6 C1.8125 3 1.8125 3 0 0 Z " transform="translate(823,316)" style="fill: #002911;"/><path d="" transform="translate(0,0)" style="fill: #000000;"/><path d="" transform="translate(0,0)" style="fill: #000000;"/></svg>