<?xml version="1.0" encoding="UTF-8"?>
<!-- Generator: visioncortex VTracer -->
<svg id="svg" version="1.1" xmlns="http://www.w3.org/2000/svg" style="display: block;" viewBox="0 0 481 481"><path d="M0 0 C12.04610522 10.54825326 21.87182948 22.29154133 31.09619141 35.38085938 C33.35892055 32.56056778 35.60690321 29.72978195 37.83837891 26.88476562 C67.57380771 -10.72180609 67.57380771 -10.72180609 86.09619141 -14.61914062 C89.49078556 -13.89688655 90.66143141 -13.05390062 93.09619141 -10.61914062 C93.68596572 -5.56204254 92.31651326 -2.40017119 90.04541016 2.07226562 C86.09695454 10.12015221 82.93633108 18.37672077 79.84194946 26.7835083 C78.88553417 29.38125746 77.9209051 31.97583364 76.9543457 34.56982422 C74.09873365 42.24054671 71.26468004 49.91915109 68.43989563 57.60127258 C67.35502241 60.54753733 66.26458893 63.49172569 65.17318726 66.43557739 C64.42684571 68.45669687 63.68966263 70.48099529 62.95288086 72.50561523 C62.50130615 73.72514893 62.04973145 74.94468262 61.58447266 76.20117188 C61.19815674 77.25578613 60.81184082 78.31040039 60.41381836 79.39697266 C58.96160609 82.68564013 57.16055927 85.44276625 55.09619141 88.38085938 C51.26678712 94.01817242 48.64468986 99.54667744 46.47119141 106.00585938 C46.17196777 106.87887695 45.87274414 107.75189453 45.56445312 108.65136719 C43.16741835 115.81222918 41.35859609 122.92762215 40.09619141 130.38085938 C39.75587891 132.29898438 39.75587891 132.29898438 39.40869141 134.25585938 C36.95901643 158.14019042 42.40723585 180.17051865 55.09619141 200.38085938 C56.0988409 202.04593348 57.09982287 203.7120192 58.09619141 205.38085938 C53.33328803 211.05407875 48.23888525 216.30034656 42.93994141 221.47460938 C40.75384323 223.65218173 38.73384859 225.93359133 36.72509766 228.27539062 C33.22641089 232.31292276 29.46337667 235.95482209 25.53369141 239.56835938 C24.49595581 240.53056396 24.49595581 240.53056396 23.43725586 241.51220703 C22.01566582 242.83006337 20.5927384 244.14647857 19.16845703 245.46142578 C17.21312681 247.27254809 15.26961498 249.09530326 13.33056641 250.92382812 C7.33788096 256.56318667 1.27836072 262.00794362 -5.14990234 267.15429688 C-7.61548179 269.14774408 -10.02931538 271.19069795 -12.43212891 273.2590332 C-20.65386 280.32293336 -29.24744039 286.86210815 -37.90380859 293.38085938 C-39.28674039 294.42757677 -40.66955505 295.47444897 -42.05224609 296.52148438 C-45.34418181 299.0093133 -48.648012 301.48047889 -51.96191406 303.93896484 C-53.27552657 304.91434773 -54.58699613 305.89262225 -55.89648438 306.87353516 C-57.80842006 308.30265404 -59.72952358 309.71843062 -61.65380859 311.13085938 C-62.22639404 311.56164795 -62.79897949 311.99243652 -63.38891602 312.4362793 C-66.61942284 314.78110381 -67.75844534 315.38085938 -71.90380859 315.38085938 C-73.63307381 314.15216541 -73.63307381 314.15216541 -75.39260864 312.39326477 C-76.06520218 311.73050537 -76.73779572 311.06774597 -77.43077087 310.38490295 C-78.15808914 309.64791672 -78.88540741 308.91093048 -79.63476562 308.15161133 C-80.79660622 306.99787521 -80.79660622 306.99787521 -81.98191833 305.8208313 C-84.55185557 303.26344484 -87.10693346 300.69175418 -89.66162109 298.11914062 C-91.44733055 296.33358615 -93.23370708 294.54869858 -95.02072144 292.76445007 C-98.77460176 289.01195711 -102.52160492 285.2527826 -106.26318359 281.48803711 C-110.56065768 277.16413516 -114.87021616 272.85258742 -119.18682015 268.54778892 C-123.35961282 264.38587678 -127.52367455 260.2153304 -131.6840477 256.04100609 C-133.44324422 254.27732617 -135.20448865 252.51568628 -136.96789932 250.75621986 C-146.31823326 241.41700181 -155.25137404 232.1829935 -162.90380859 221.38085938 C-163.39502197 220.70832123 -163.88623535 220.03578308 -164.39233398 219.34286499 C-176.27037078 202.86310095 -185.79672174 184.74976179 -191.90380859 165.38085938 C-192.14180176 164.63916504 -192.37979492 163.8974707 -192.625 163.13330078 C-205.29052403 122.99508776 -203.25480685 78.46696207 -183.88305664 40.83544922 C-178.5538944 30.81328948 -172.27293479 22.01101252 -164.90380859 13.38085938 C-164.29408203 12.64738281 -163.68435547 11.91390625 -163.05615234 11.15820312 C-144.65334121 -10.59819546 -116.67517255 -25.16301835 -88.44677734 -28.37304688 C-56.07657761 -30.6214731 -24.87734801 -21.15754963 0 0 Z " transform="translate(207.90380859375,53.619140625)" style="fill: #0F6E56;"/><path d="M0 0 C2.375 1.75 2.375 1.75 4 5 C6.30659124 38.8300049 -18.21773138 78.20081235 -39.37353516 102.58300781 C-44.50560334 108.41098077 -49.89263914 113.93774599 -55.421875 119.38671875 C-56.19015625 120.14597656 -56.9584375 120.90523438 -57.75 121.6875 C-58.52859375 122.45449219 -59.3071875 123.22148437 -60.109375 124.01171875 C-62.05230615 125.8610699 -62.05230615 125.8610699 -63 128 C-63.66 128 -64.32 128 -65 128 C-65 128.66 -65 129.32 -65 130 C-66.36547852 131.34643555 -66.36547852 131.34643555 -68.31640625 132.94921875 C-73.808389 137.62049083 -78.85253128 142.70638795 -83.9375 147.8125 C-84.90412902 148.77555913 -85.8709249 149.73845081 -86.83789062 150.70117188 C-87.74603516 151.61060547 -88.65417969 152.52003906 -89.58984375 153.45703125 C-90.82528931 154.6941687 -90.82528931 154.6941687 -92.08569336 155.95629883 C-94.0460552 157.85455934 -94.0460552 157.85455934 -95 160 C-95.66 160 -96.32 160 -97 160 C-97 160.66 -97 161.32 -97 162 C-98.328125 163.26953125 -98.328125 163.26953125 -100.25 164.8125 C-104.18268852 168.13747289 -107.61732012 171.75033006 -111.0625 175.5625 C-115.14297997 180.07307598 -119.29409218 184.13069801 -124 188 C-124.33 188.66 -124.66 189.32 -125 190 C-125.66 190 -126.32 190 -127 190 C-127 190.66 -127 191.32 -127 192 C-127.66 192 -128.32 192 -129 192 C-129.66 193.32 -130.32 194.64 -131 196 C-131.66 196 -132.32 196 -133 196 C-133 196.66 -133 197.32 -133 198 C-133.66 198 -134.32 198 -135 198 C-135.226875 198.556875 -135.45375 199.11375 -135.6875 199.6875 C-137.38143236 202.67204749 -139.51614698 204.62654045 -142 207 C-142.598125 207.61875 -143.19625 208.2375 -143.8125 208.875 C-144.740625 209.8340625 -144.740625 209.8340625 -145.6875 210.8125 C-146.26886719 211.41707031 -146.85023438 212.02164063 -147.44921875 212.64453125 C-149 214 -149 214 -151 214 C-151 214.66 -151 215.32 -151 216 C-151.66 216 -152.32 216 -153 216 C-153 216.66 -153 217.32 -153 218 C-153.680625 218.53625 -154.36125 219.0725 -155.0625 219.625 C-158.1731425 222.13998755 -160.58711223 224.85452229 -163.15625 227.90234375 C-165.33490175 230.3810217 -167.65994129 232.67278363 -170 235 C-171.73950292 236.74414059 -173.47865874 238.4886274 -175.2175293 240.23339844 C-180.22812983 245.2602602 -185.24121085 250.28464028 -190.25575542 255.3075676 C-193.2832329 258.34028852 -196.30975705 261.37394897 -199.33422852 264.40966797 C-202.26852578 267.35480286 -205.20523499 270.29751244 -208.14365578 273.23853302 C-209.26211369 274.35884044 -210.37969022 275.4800285 -211.49637413 276.60210419 C-213.05216292 278.16511704 -214.61101744 279.72500792 -216.1706543 281.28417969 C-217.50038521 282.61724152 -217.50038521 282.61724152 -218.85697937 283.97723389 C-221.26309495 286.24833151 -222.39494937 286.88475226 -225.625 287.5 C-229.32387462 286.95201858 -230.06437939 286.36174198 -232.73779297 283.93359375 C-233.44079529 283.29599121 -234.14379761 282.65838867 -234.86810303 282.00146484 C-238.15999106 278.91097865 -241.38267868 275.76021825 -244.5703125 272.5625 C-245.25503632 271.87873291 -245.93976013 271.19496582 -246.64523315 270.49047852 C-248.07998364 269.05640325 -249.51349336 267.62108564 -250.94580078 266.18457031 C-253.12290432 264.00210085 -255.30530841 261.82503455 -257.48828125 259.6484375 C-258.89094579 258.24511223 -260.29330012 256.84147682 -261.6953125 255.4375 C-262.33920929 254.79562744 -262.98310608 254.15375488 -263.64651489 253.49243164 C-267.17947371 249.94134678 -270.53320034 246.3075998 -273.74021912 242.45860291 C-275.3240398 240.62481936 -277.06015858 239.0905686 -278.9375 237.5625 C-282.44617584 234.58847953 -285.37091476 231.36494531 -288.328125 227.8515625 C-289.90943853 226.10029471 -291.51507972 224.6936524 -293.375 223.25 C-296.10521442 220.90981621 -296.39873894 220.32791006 -297 217 C-295.30738281 215.73053711 -293.61476113 214.46108022 -291.92211914 213.19165039 C-290.45768576 212.09328421 -288.99333201 210.99481186 -287.52905273 209.89624023 C-284.30890584 207.48051479 -281.08805674 205.06579582 -277.86328125 202.65625 C-274.90393389 200.44396243 -271.95064362 198.2238841 -269 196 C-268.37544922 195.53013672 -267.75089844 195.06027344 -267.10742188 194.57617188 C-253.35172873 184.20975442 -239.80757285 173.5655099 -227.1015625 161.921875 C-225.19963858 160.18256911 -223.26680268 158.49236869 -221.3125 156.8125 C-210.6577337 147.48694217 -200.52181868 137.62147615 -190.5 127.625 C-189.56849121 126.6980835 -188.63698242 125.77116699 -187.67724609 124.81616211 C-182.57739892 119.70482258 -177.67595408 114.50102912 -173 109 C-170.66666667 106.33333333 -168.33333333 103.66666667 -166 101 C-164.38931641 101.41572266 -164.38931641 101.41572266 -162.74609375 101.83984375 C-161.30994471 102.20592096 -159.87374401 102.57179558 -158.4375 102.9375 C-157.73302734 103.11990234 -157.02855469 103.30230469 -156.30273438 103.49023438 C-134.48011634 109.02131268 -111.12096156 106.08249094 -91.40625 95.06640625 C-78.20103401 87.19573548 -61.28207486 75.09924107 -56.1875 60.125 C-53.89426208 53.641022 -49.07034111 49.31747756 -44.39306641 44.48486328 C-42.30228745 42.2563113 -40.40611835 39.886941 -38.5 37.5 C-35.3006763 33.52369768 -31.97408767 29.73338378 -28.5 26 C-24.16002279 21.3342983 -20.07826621 16.51481811 -16.07421875 11.5546875 C-5.997064 -0.85672343 -5.997064 -0.85672343 0 0 Z " transform="translate(465,182)" style="fill: #0F6E56;"/><path d="M0 0 C2.96227295 0.65872115 5.41249194 0.72421126 8.43359375 0.58984375 C16.81796151 0.33503663 25.49168824 3.22758122 31.93359375 8.65234375 C34.06324198 11.24495899 33.9391546 12.81082786 34.05859375 16.21484375 C33.03713495 22.92368423 27.88035883 29.0576007 22.90625 33.4375 C20.35348761 35.00959724 18.05488829 35.31129029 15.078125 35.1953125 C10.73250616 34.09505564 7.98813345 30.76164611 4.93359375 27.65234375 C4.26585937 27.06582031 3.598125 26.47929688 2.91015625 25.875 C-0.24145148 23.03855304 -2.38066549 21.01693619 -3.00390625 16.71484375 C-3.03484375 15.19890625 -3.03484375 15.19890625 -3.06640625 13.65234375 C-14.23208735 11.71048617 -22.8719213 12.30219006 -32.75390625 18.27734375 C-39.09638559 24.79124145 -42.79023456 31.87489976 -46.30078125 40.16796875 C-46.69177002 41.08684372 -47.08275879 42.00571869 -47.4855957 42.95243835 C-51.70659802 52.99367727 -55.40789601 63.20847186 -59.06640625 73.46484375 C-60.4506442 77.31730055 -61.83878461 81.1683485 -63.2265625 85.01953125 C-63.56003189 85.94694626 -63.89350128 86.87436127 -64.23707581 87.82987976 C-67.26087303 96.22780278 -70.38455402 104.58552072 -73.59179688 112.9152832 C-73.91212891 113.75534912 -74.23246094 114.59541504 -74.5625 115.4609375 C-74.83247803 116.16017334 -75.10245605 116.85940918 -75.38061523 117.57983398 C-76.61424783 121.30796041 -77.13925829 125.00942999 -77.4453125 128.91015625 C-77.95758623 133.73731258 -79.34922307 137.98512469 -81.00390625 142.52734375 C-87.14372707 160.22522277 -88.51512129 178.60157545 -80.44140625 196.02734375 C-73.64152796 208.26712467 -63.6816776 216.6620447 -50.3359375 220.8125 C-35.6002131 224.20819212 -20.84147485 222.33810955 -7.73046875 214.5546875 C-1.40682241 210.03912186 4.5798139 204.74901093 9.28515625 198.55859375 C11.70053217 195.90809274 12.78548019 195.07783161 15.88671875 193.67578125 C20.27425146 191.67528016 22.72611654 189.01561988 25.68359375 185.27734375 C26.71581332 184.02446556 27.74837548 182.77186956 28.78125 181.51953125 C29.30090332 180.87983398 29.82055664 180.24013672 30.35595703 179.58105469 C32.89395172 176.47827567 35.5076273 173.44155973 38.12109375 170.40234375 C38.62133057 169.81751221 39.12156738 169.23268066 39.63696289 168.63012695 C42.58160277 165.1943101 45.57538229 161.81195373 48.62109375 158.46484375 C52.373382 154.32994292 55.90322565 150.05070319 59.41015625 145.70703125 C61.83668006 142.76966033 64.32587818 139.90276194 66.84277344 137.04321289 C77.53255154 124.87347547 88.43731421 111.86279271 87.93359375 94.65234375 C87.28857257 88.25099717 85.66402474 80.38277474 80.93359375 75.65234375 C79.54028994 75.42771525 78.14370166 75.22341925 76.74609375 75.02734375 C69.41887387 73.62966597 60.26820531 70.18968851 55.0703125 64.67578125 C52.95841953 60.91646661 52.85016874 57.80853346 53.93359375 53.65234375 C57.1438032 48.30199466 60.69055503 43.1477029 65.93359375 39.65234375 C69.00060866 39.10671376 71.86195881 39.14040459 74.93359375 39.65234375 C77.55859375 41.58984375 77.55859375 41.58984375 79.93359375 44.65234375 C80.49949219 45.29558594 81.06539063 45.93882813 81.6484375 46.6015625 C85.78699965 51.47509129 87.89120565 55.91734619 89.83984375 61.96484375 C91.01562309 64.85390155 92.42974181 66.7748923 94.43359375 69.15234375 C99.79308642 75.56993369 102.31844687 83.34786083 102.93359375 91.65234375 C103.03671875 92.95171875 103.13984375 94.25109375 103.24609375 95.58984375 C102.91725536 119.59504613 86.75640069 136.65291985 71.93359375 153.65234375 C69.70315002 156.21373532 67.47402139 158.77626337 65.24609375 161.33984375 C64.69808105 161.96971191 64.15006836 162.59958008 63.58544922 163.24853516 C60.40552036 166.91517804 57.29675411 170.62661447 54.24609375 174.40234375 C51.25363528 178.10051912 48.15358897 181.65041346 44.93359375 185.15234375 C41.57941902 188.82571452 38.23827014 192.50443832 34.99609375 196.27734375 C33.93068359 197.50324219 33.93068359 197.50324219 32.84375 198.75390625 C31.11582286 201.37583251 30.42366639 203.10200248 29.578125 206.05078125 C28.01280186 211.11688931 25.37228134 214.0668654 21.55859375 217.65234375 C20.62648071 218.5506189 20.62648071 218.5506189 19.67553711 219.46704102 C2.82305519 235.34516871 -16.88398302 244.50038005 -40.3046875 243.9375 C-51.29721698 243.10421376 -61.11665794 240.34002778 -71.06640625 235.65234375 C-76.66464869 241.93347533 -76.66464869 241.93347533 -82.19140625 248.27734375 C-91.31871332 258.6796405 -100.92537382 268.62352683 -110.67654419 278.4387207 C-111.71194842 279.48151681 -112.74575598 280.52590119 -113.77780151 281.57202148 C-119.79011193 287.65871227 -125.95789888 293.36291138 -132.65307617 298.70898438 C-135.61193431 301.09163595 -138.36466248 303.60969315 -141.12890625 306.21484375 C-146.24729293 310.96880657 -151.54721851 315.37275967 -157.06640625 319.65234375 C-158.37405817 320.67792625 -159.68131628 321.70401098 -160.98828125 322.73046875 C-188.69924137 344.44432716 -216.98615034 365.34499495 -247.02709961 383.74633789 C-254.4462165 388.20663517 -254.4462165 388.20663517 -258.44140625 395.58984375 C-259.99394631 400.01623456 -261.99266808 402.16283709 -266.06640625 404.65234375 C-270.49367399 405.92974537 -273.92793633 406.02453584 -278.31640625 404.58984375 C-282.32484505 401.76571642 -285.3149985 399.22464758 -286.703125 394.47265625 C-287.50242128 389.36747358 -287.12342941 385.99134436 -284.06640625 381.65234375 C-279.90869873 377.40014288 -277.01308515 375.85740164 -271.06640625 375.65234375 C-269.68865812 375.84165265 -268.31345544 376.05038825 -266.94140625 376.27734375 C-262.70542728 376.6872772 -261.35123842 376.21861888 -258.06640625 373.65234375 C-262.00680987 369.31060272 -266.79171101 367.94185042 -272.50390625 367.21484375 C-279.05725011 368.01964036 -285.43345393 370.88702136 -290.06640625 375.65234375 C-294.11178325 381.67241326 -295.85471531 388.04108456 -294.625 395.234375 C-292.97556389 401.52108291 -290.7939188 406.11567766 -285.28125 409.8671875 C-279.74690225 412.95894042 -273.99793379 414.44646024 -267.70703125 413.17578125 C-262.58029028 411.61023283 -257.04298801 409.58843122 -253.93481445 404.97143555 C-252.56728813 402.37585782 -251.35376702 399.724838 -250.14453125 397.05273438 C-248.43451665 393.5240772 -247.43864548 391.89614106 -244.06640625 389.6875 C-241.06640625 388.65234375 -241.06640625 388.65234375 -237.06640625 388.65234375 C-237.27956721 399.93049615 -240.1922841 408.45574745 -247.90234375 416.828125 C-257.14624003 424.62036248 -267.35982746 426.55489177 -279.06640625 425.65234375 C-288.65671208 423.76989645 -296.14438134 418.24997554 -301.73046875 410.27734375 C-307.27769879 400.67512099 -308.72125368 390.74887916 -306.484375 379.8046875 C-303.4629805 371.09920838 -296.2636563 362.83461419 -288.06640625 358.65234375 C-277.89998947 354.45755196 -267.90439877 354.23651974 -257.69140625 358.36328125 C-253.5386127 360.40259951 -249.77895052 362.90231096 -246.06640625 365.65234375 C-236.70589598 359.98191637 -227.68830256 354.05885184 -218.921875 347.5078125 C-214.82179673 344.44835249 -210.63445623 341.51987041 -206.44140625 338.58984375 C-200.228402 334.23214557 -194.15505579 329.74184302 -188.171875 325.07421875 C-186.08037642 323.44311294 -183.9841905 321.82738204 -181.8671875 320.23046875 C-175.44257155 315.37271399 -169.24333714 310.32148306 -163.15869141 305.04345703 C-159.66000811 302.00879526 -156.11654861 299.0518956 -152.50390625 296.15234375 C-146.64412354 291.39234431 -141.15416381 286.27416159 -135.64550781 281.11816406 C-133.29172803 278.93323923 -130.89268406 276.79887931 -128.50390625 274.65234375 C-122.77312262 269.40423307 -117.25653029 263.95096142 -111.75390625 258.46484375 C-110.90562256 257.62115234 -110.05733887 256.77746094 -109.18334961 255.90820312 C-104.27149022 250.98425628 -99.56474647 245.95615099 -95.06640625 240.65234375 C-94.54796143 240.04495361 -94.0295166 239.43756348 -93.49536133 238.81176758 C-92.035005 237.09600735 -90.58076531 235.37529682 -89.12890625 233.65234375 C-88.63583984 233.06839844 -88.14277344 232.48445312 -87.63476562 231.8828125 C-86.44467679 230.47319271 -85.25544519 229.06284926 -84.06640625 227.65234375 C-85.58535084 224.16676564 -87.67100544 221.73011051 -90.19140625 218.90234375 C-105.05176233 200.90719436 -109.09361224 179.5115721 -107.06640625 156.65234375 C-105.38185737 144.95665164 -102.47865326 126.57354173 -93.06640625 118.65234375 C-92.40640625 118.65234375 -91.74640625 118.65234375 -91.06640625 118.65234375 C-90.71191406 117.39164062 -90.35742188 116.1309375 -89.9921875 114.83203125 C-87.44476313 106.35646074 -84.30639357 98.08073596 -81.25390625 89.77734375 C-80.92648437 88.88527222 -80.5990625 87.99320068 -80.26171875 87.07409668 C-75.73471708 74.75260266 -71.15949733 62.4488535 -66.44766235 50.19671631 C-65.86963645 48.69181125 -65.294325 47.18586018 -64.72201538 45.67877197 C-58.43326349 29.15024429 -50.92402248 9.831312 -34.06640625 1.65234375 C-22.18230798 -3.22671333 -12.23639629 -3.45292327 0 0 Z " transform="translate(367.06640625,31.34765625)" style="fill: #0F6E56;"/></svg>